<svg width="100" height="100" viewBox="0 0 100 100" fill="none" xmlns="http://www.w3.org/2000/svg">
<path d="M53.2733 50.9547C54.4497 51.3365 55.4406 52.1888 56.037 53.3319C56.6334 54.4751 56.7886 55.8197 56.47 57.0821C56.1513 58.3445 55.3836 59.4261 54.3289 60.0986C53.2742 60.7712 52.0149 60.9822 50.8165 60.6871L43.2594 58.5307M53.2733 50.9547C53.8837 51.1567 54.5262 51.2256 55.1623 51.1571C55.7983 51.0886 56.4148 50.8843 56.9747 50.5563C57.5346 50.2283 58.0263 49.7835 58.4203 49.2485C58.8143 48.7135 59.1025 48.0995 59.2676 47.4432C59.4326 46.7869 59.4712 46.1019 59.3808 45.4294C59.2905 44.7569 59.0732 44.1107 58.742 43.5297C58.4107 42.9486 57.9724 42.4447 57.4533 42.0482C56.9341 41.6517 56.345 41.3708 55.7211 41.2223L48.164 39.0658M53.2733 50.9547L45.7162 48.7983M43.2594 58.5307L48.164 39.0658M43.2594 58.5307L40.5713 57.7646M48.164 39.0658L45.4847 38.3092M50.4961 39.7374L51.3684 36.2852M54.2346 40.7967L55.1069 37.3445M44.7192 62.645L45.5916 59.1927M48.4577 63.7137L49.33 60.2615" stroke="url(#paint0_linear_2478_5381)" stroke-width="1.5" stroke-linecap="round" stroke-linejoin="round"/>
<path d="M74 50C74 57.6632 70.3789 64.4842 64.8211 68.8632C60.7789 72.0632 55.6421 74 50 74C36.6947 74 26 63.3053 26 50C26 44.3579 27.9368 39.3053 31.1368 35.1789H31.2211C35.5158 29.6211 42.3368 26 50 26C63.3053 26 74 36.6947 74 50Z" stroke="url(#paint1_linear_2478_5381)" stroke-width="1.5" stroke-linecap="round" stroke-linejoin="round"/>
<path d="M53.0877 10.9298L52.6236 10.3407L52.6222 10.3418L53.0877 10.9298ZM46.0702 3.91228V3.16228C45.8384 3.16228 45.6196 3.26948 45.4775 3.45266L46.0702 3.91228ZM46.0877 3.91228V4.66228C46.32 4.66228 46.5392 4.55466 46.6812 4.37087L46.0877 3.91228ZM49.25 18C49.25 18.4142 49.5858 18.75 50 18.75C50.4142 18.75 50.75 18.4142 50.75 18L49.25 18ZM54.25 7C54.25 8.35506 53.6103 9.56328 52.6236 10.3407L53.5519 11.5189C54.8809 10.4718 55.75 8.83793 55.75 7H54.25ZM52.6222 10.3418C51.9077 10.9074 51.0004 11.25 50 11.25V12.75C51.3505 12.75 52.5835 12.2856 53.5532 11.5179L52.6222 10.3418ZM50 11.25C47.6423 11.25 45.75 9.35772 45.75 7H44.25C44.25 10.1861 46.8139 12.75 50 12.75V11.25ZM45.75 7C45.75 6.00358 46.0902 5.11036 46.6628 4.3719L45.4775 3.45266C44.7169 4.4335 44.25 5.64554 44.25 7H45.75ZM46.0702 4.66228H46.0877V3.16228H46.0702V4.66228ZM46.6812 4.37087C47.4388 3.39038 48.6437 2.75 50 2.75V1.25C48.1633 1.25 46.5261 2.11839 45.4943 3.4537L46.6812 4.37087ZM50 2.75C52.3577 2.75 54.25 4.64228 54.25 7H55.75C55.75 3.81386 53.1861 1.25 50 1.25V2.75ZM49.25 12L49.25 18L50.75 18L50.75 12L49.25 12Z" fill="url(#paint2_linear_2478_5381)"/>
<path d="M46.9123 89.0702L47.3764 89.6593L47.3778 89.6582L46.9123 89.0702ZM53.9298 96.0877V96.8377C54.1616 96.8377 54.3804 96.7305 54.5225 96.5473L53.9298 96.0877ZM53.9123 96.0877V95.3377C53.68 95.3377 53.4608 95.4453 53.3188 95.6291L53.9123 96.0877ZM50.75 82C50.75 81.5858 50.4142 81.25 50 81.25C49.5858 81.25 49.25 81.5858 49.25 82L50.75 82ZM45.75 93C45.75 91.6449 46.3897 90.4367 47.3764 89.6593L46.4481 88.4811C45.1191 89.5282 44.25 91.1621 44.25 93H45.75ZM47.3778 89.6582C48.0923 89.0926 48.9996 88.75 50 88.75V87.25C48.6495 87.25 47.4165 87.7144 46.4468 88.4821L47.3778 89.6582ZM50 88.75C52.3577 88.75 54.25 90.6423 54.25 93H55.75C55.75 89.8139 53.1861 87.25 50 87.25V88.75ZM54.25 93C54.25 93.9964 53.9098 94.8896 53.3372 95.6281L54.5225 96.5473C55.2831 95.5665 55.75 94.3545 55.75 93H54.25ZM53.9298 95.3377H53.9123V96.8377H53.9298V95.3377ZM53.3188 95.6291C52.5612 96.6096 51.3563 97.25 50 97.25V98.75C51.8367 98.75 53.4739 97.8816 54.5057 96.5463L53.3188 95.6291ZM50 97.25C47.6423 97.25 45.75 95.3577 45.75 93H44.25C44.25 96.1861 46.8139 98.75 50 98.75V97.25ZM50.75 88L50.75 82L49.25 82L49.25 88L50.75 88Z" fill="url(#paint3_linear_2478_5381)"/>
<path d="M10.9298 46.9123L10.3407 47.3764L10.3418 47.3778L10.9298 46.9123ZM3.91228 53.9298H3.16228C3.16228 54.1616 3.26948 54.3804 3.45266 54.5225L3.91228 53.9298ZM3.91228 53.9123H4.66228C4.66228 53.68 4.55466 53.4608 4.37087 53.3188L3.91228 53.9123ZM18 50.75C18.4142 50.75 18.75 50.4142 18.75 50C18.75 49.5858 18.4142 49.25 18 49.25L18 50.75ZM7 45.75C8.35506 45.75 9.56328 46.3897 10.3407 47.3764L11.5189 46.4481C10.4718 45.1191 8.83793 44.25 7 44.25V45.75ZM10.3418 47.3778C10.9074 48.0923 11.25 48.9996 11.25 50H12.75C12.75 48.6495 12.2856 47.4165 11.5179 46.4468L10.3418 47.3778ZM11.25 50C11.25 52.3577 9.35772 54.25 7 54.25V55.75C10.1861 55.75 12.75 53.1861 12.75 50H11.25ZM7 54.25C6.00358 54.25 5.11036 53.9098 4.3719 53.3372L3.45266 54.5225C4.4335 55.2831 5.64554 55.75 7 55.75V54.25ZM4.66228 53.9298V53.9123H3.16228V53.9298H4.66228ZM4.37087 53.3188C3.39038 52.5612 2.75 51.3563 2.75 50H1.25C1.25 51.8367 2.11839 53.4739 3.4537 54.5057L4.37087 53.3188ZM2.75 50C2.75 47.6423 4.64228 45.75 7 45.75V44.25C3.81386 44.25 1.25 46.8139 1.25 50H2.75ZM12 50.75L18 50.75L18 49.25L12 49.25L12 50.75Z" fill="url(#paint4_linear_2478_5381)"/>
<path d="M89.0702 53.0877L89.6593 52.6236L89.6582 52.6222L89.0702 53.0877ZM96.0877 46.0702H96.8377C96.8377 45.8384 96.7305 45.6196 96.5473 45.4775L96.0877 46.0702ZM96.0877 46.0877H95.3377C95.3377 46.32 95.4453 46.5392 95.6291 46.6812L96.0877 46.0877ZM82 49.25C81.5858 49.25 81.25 49.5858 81.25 50C81.25 50.4142 81.5858 50.75 82 50.75L82 49.25ZM93 54.25C91.6449 54.25 90.4367 53.6103 89.6593 52.6236L88.4811 53.5519C89.5282 54.8809 91.1621 55.75 93 55.75V54.25ZM89.6582 52.6222C89.0926 51.9077 88.75 51.0004 88.75 50H87.25C87.25 51.3505 87.7144 52.5835 88.4821 53.5532L89.6582 52.6222ZM88.75 50C88.75 47.6423 90.6423 45.75 93 45.75V44.25C89.8139 44.25 87.25 46.8139 87.25 50H88.75ZM93 45.75C93.9964 45.75 94.8896 46.0902 95.6281 46.6628L96.5473 45.4775C95.5665 44.7169 94.3545 44.25 93 44.25V45.75ZM95.3377 46.0702V46.0877H96.8377V46.0702H95.3377ZM95.6291 46.6812C96.6096 47.4388 97.25 48.6437 97.25 50H98.75C98.75 48.1633 97.8816 46.5261 96.5463 45.4943L95.6291 46.6812ZM97.25 50C97.25 52.3577 95.3577 54.25 93 54.25V55.75C96.1861 55.75 98.75 53.1861 98.75 50H97.25ZM88 49.25L82 49.25L82 50.75L88 50.75L88 49.25Z" fill="url(#paint5_linear_2478_5381)"/>
<path d="M24.5567 20.1897L23.8119 20.1013L23.8117 20.1031L24.5567 20.1897ZM14.6324 20.1897L14.102 19.6594C13.9381 19.8233 13.8592 20.0538 13.8883 20.2838L14.6324 20.1897ZM14.6448 20.1773L15.1751 20.7076C15.3393 20.5434 15.4182 20.3123 15.3887 20.0819L14.6448 20.1773ZM26.8423 27.9027C27.1352 28.1956 27.6101 28.1956 27.903 27.9027C28.1959 27.6099 28.1959 27.135 27.903 26.8421L26.8423 27.9027ZM22.5997 16.589C23.5579 17.5472 23.9599 18.8539 23.8119 20.1013L25.3014 20.2781C25.5008 18.5978 24.96 16.828 23.6604 15.5284L22.5997 16.589ZM23.8117 20.1031C23.7064 21.0082 23.3071 21.8921 22.5997 22.5994L23.6604 23.6601C24.6153 22.7051 25.1588 21.5049 25.3016 20.2763L23.8117 20.1031ZM22.5997 22.5994C20.9326 24.2666 18.2565 24.2666 16.5893 22.5994L15.5286 23.6601C17.7816 25.913 21.4074 25.913 23.6604 23.6601L22.5997 22.5994ZM16.5893 22.5994C15.8847 21.8949 15.4936 21.0227 15.3764 20.0956L13.8883 20.2838C14.044 21.5152 14.5709 22.7024 15.5286 23.6601L16.5893 22.5994ZM15.1627 20.72L15.1751 20.7076L14.1144 19.647L14.102 19.6594L15.1627 20.72ZM15.3887 20.0819C15.2311 18.8529 15.6303 17.5481 16.5893 16.589L15.5286 15.5284C14.2299 16.8271 13.6863 18.5989 13.9008 20.2727L15.3887 20.0819ZM16.5893 16.589C18.2565 14.9219 20.9326 14.9219 22.5997 16.589L23.6604 15.5284C21.4074 13.2754 17.7816 13.2754 15.5286 15.5284L16.5893 16.589ZM22.5997 23.6601L26.8423 27.9027L27.903 26.8421L23.6604 22.5994L22.5997 23.6601Z" fill="url(#paint6_linear_2478_5381)"/>
<path d="M75.4436 79.8103L76.1884 79.8987L76.1886 79.8969L75.4436 79.8103ZM85.3679 79.8103L85.8982 80.3406C86.0621 80.1767 86.141 79.9462 86.112 79.7162L85.3679 79.8103ZM85.3555 79.8227L84.8252 79.2924C84.6609 79.4566 84.582 79.6877 84.6116 79.9181L85.3555 79.8227ZM73.1579 72.0973C72.865 71.8044 72.3901 71.8044 72.0972 72.0973C71.8043 72.3902 71.8043 72.865 72.0972 73.1579L73.1579 72.0973ZM77.4005 83.411C76.4424 82.4528 76.0404 81.1461 76.1884 79.8987L74.6988 79.7219C74.4995 81.4022 75.0403 83.172 76.3399 84.4716L77.4005 83.411ZM76.1886 79.8969C76.2938 78.9918 76.6932 78.1079 77.4005 77.4006L76.3399 76.3399C75.3849 77.2949 74.8415 78.4951 74.6986 79.7237L76.1886 79.8969ZM77.4005 77.4006C79.0677 75.7334 81.7438 75.7334 83.4109 77.4006L84.4716 76.3399C82.2187 74.087 78.5928 74.087 76.3399 76.3399L77.4005 77.4006ZM83.4109 77.4006C84.1155 78.1051 84.5066 78.9773 84.6238 79.9044L86.112 79.7162C85.9563 78.4848 85.4293 77.2976 84.4716 76.3399L83.4109 77.4006ZM84.8376 79.28L84.8252 79.2924L85.8858 80.353L85.8982 80.3406L84.8376 79.28ZM84.6116 79.9181C84.7691 81.1471 84.37 82.4519 83.4109 83.411L84.4716 84.4716C85.7704 83.1729 86.314 81.4011 86.0994 79.7273L84.6116 79.9181ZM83.4109 83.411C81.7438 85.0781 79.0677 85.0781 77.4005 83.411L76.3399 84.4716C78.5928 86.7246 82.2187 86.7246 84.4716 84.4716L83.4109 83.411ZM77.4005 76.3399L73.1579 72.0973L72.0972 73.1579L76.3399 77.4006L77.4005 76.3399Z" fill="url(#paint7_linear_2478_5381)"/>
<path d="M75.4433 20.1897L76.1881 20.1013L76.1883 20.1031L75.4433 20.1897ZM85.3676 20.1897L85.898 19.6594C86.0619 19.8233 86.1408 20.0538 86.1117 20.2838L85.3676 20.1897ZM85.3552 20.1773L84.8249 20.7076C84.6607 20.5434 84.5818 20.3123 84.6113 20.0819L85.3552 20.1773ZM73.1577 27.9027C72.8648 28.1956 72.3899 28.1956 72.097 27.9027C71.8041 27.6098 71.8041 27.135 72.097 26.8421L73.1577 27.9027ZM77.4003 16.589C76.4421 17.5472 76.0401 18.8539 76.1881 20.1013L74.6986 20.2781C74.4992 18.5978 75.04 16.828 76.3396 15.5284L77.4003 16.589ZM76.1883 20.1031C76.2936 21.0082 76.6929 21.8921 77.4003 22.5994L76.3396 23.6601C75.3847 22.7051 74.8412 21.5049 74.6984 20.2763L76.1883 20.1031ZM77.4003 22.5994C79.0674 24.2666 81.7435 24.2666 83.4107 22.5994L84.4714 23.6601C82.2184 25.913 78.5926 25.913 76.3396 23.6601L77.4003 22.5994ZM83.4107 22.5994C84.1153 21.8949 84.5064 21.0227 84.6236 20.0956L86.1117 20.2838C85.956 21.5152 85.4291 22.7024 84.4714 23.6601L83.4107 22.5994ZM84.8373 20.72L84.8249 20.7076L85.8856 19.647L85.898 19.6594L84.8373 20.72ZM84.6113 20.0819C84.7689 18.8529 84.3697 17.5481 83.4107 16.589L84.4714 15.5284C85.7701 16.8271 86.3137 18.5989 86.0992 20.2727L84.6113 20.0819ZM83.4107 16.589C81.7435 14.9219 79.0674 14.9219 77.4003 16.589L76.3396 15.5284C78.5926 13.2754 82.2184 13.2754 84.4714 15.5284L83.4107 16.589ZM77.4003 23.6601L73.1577 27.9027L72.097 26.8421L76.3396 22.5994L77.4003 23.6601Z" fill="url(#paint8_linear_2478_5381)"/>
<path d="M24.5564 79.8103L23.8116 79.8987L23.8114 79.8969L24.5564 79.8103ZM14.6321 79.8103L14.1018 80.3406C13.9379 80.1767 13.859 79.9462 13.888 79.7162L14.6321 79.8103ZM14.6445 79.8227L15.1748 79.2924C15.3391 79.4566 15.418 79.6877 15.3884 79.9181L14.6445 79.8227ZM26.8421 72.0973C27.135 71.8044 27.6099 71.8044 27.9028 72.0973C28.1957 72.3902 28.1957 72.865 27.9028 73.1579L26.8421 72.0973ZM22.5995 83.411C23.5576 82.4528 23.9596 81.1461 23.8116 79.8987L25.3012 79.7219C25.5005 81.4022 24.9597 83.172 23.6601 84.4716L22.5995 83.411ZM23.8114 79.8969C23.7062 78.9918 23.3068 78.1079 22.5995 77.4006L23.6601 76.3399C24.6151 77.2949 25.1585 78.4951 25.3014 79.7237L23.8114 79.8969ZM22.5995 77.4006C20.9323 75.7334 18.2562 75.7334 16.5891 77.4006L15.5284 76.3399C17.7813 74.087 21.4072 74.087 23.6601 76.3399L22.5995 77.4006ZM16.5891 77.4006C15.8845 78.1051 15.4934 78.9773 15.3762 79.9044L13.888 79.7162C14.0437 78.4848 14.5707 77.2976 15.5284 76.3399L16.5891 77.4006ZM15.1624 79.28L15.1748 79.2924L14.1142 80.353L14.1018 80.3406L15.1624 79.28ZM15.3884 79.9181C15.2309 81.1471 15.63 82.4519 16.5891 83.411L15.5284 84.4716C14.2296 83.1729 13.686 81.4011 13.9006 79.7273L15.3884 79.9181ZM16.5891 83.411C18.2562 85.0781 20.9323 85.0781 22.5995 83.411L23.6601 84.4716C21.4072 86.7246 17.7813 86.7246 15.5284 84.4716L16.5891 83.411ZM22.5995 76.3399L26.8421 72.0973L27.9028 73.1579L23.6601 77.4006L22.5995 76.3399Z" fill="url(#paint9_linear_2478_5381)"/>
<defs>
<linearGradient id="paint0_linear_2478_5381" x1="29.1461" y1="60.1242" x2="88.1477" y2="0.794335" gradientUnits="userSpaceOnUse">
<stop stop-color="#6000FF"/>
<stop offset="1" stop-color="#F0C9BD"/>
</linearGradient>
<linearGradient id="paint1_linear_2478_5381" x1="-3.0824" y1="67.7183" x2="93.1323" y2="-73.0089" gradientUnits="userSpaceOnUse">
<stop stop-color="#6000FF"/>
<stop offset="1" stop-color="#F0C9BD"/>
</linearGradient>
<linearGradient id="paint2_linear_2478_5381" x1="38.9412" y1="15.9061" x2="73.2211" y2="-15.4309" gradientUnits="userSpaceOnUse">
<stop stop-color="#6000FF"/>
<stop offset="1" stop-color="#F0C9BD"/>
</linearGradient>
<linearGradient id="paint3_linear_2478_5381" x1="61.0588" y1="84.0939" x2="26.7789" y2="115.431" gradientUnits="userSpaceOnUse">
<stop stop-color="#6000FF"/>
<stop offset="1" stop-color="#F0C9BD"/>
</linearGradient>
<linearGradient id="paint4_linear_2478_5381" x1="15.9061" y1="61.0588" x2="-15.4309" y2="26.7789" gradientUnits="userSpaceOnUse">
<stop stop-color="#6000FF"/>
<stop offset="1" stop-color="#F0C9BD"/>
</linearGradient>
<linearGradient id="paint5_linear_2478_5381" x1="84.0939" y1="38.9412" x2="115.431" y2="73.2211" gradientUnits="userSpaceOnUse">
<stop stop-color="#6000FF"/>
<stop offset="1" stop-color="#F0C9BD"/>
</linearGradient>
<linearGradient id="paint6_linear_2478_5381" x1="18.0723" y1="33.7116" x2="20.1533" y2="-12.6866" gradientUnits="userSpaceOnUse">
<stop stop-color="#6000FF"/>
<stop offset="1" stop-color="#F0C9BD"/>
</linearGradient>
<linearGradient id="paint7_linear_2478_5381" x1="81.9279" y1="66.2884" x2="79.8469" y2="112.687" gradientUnits="userSpaceOnUse">
<stop stop-color="#6000FF"/>
<stop offset="1" stop-color="#F0C9BD"/>
</linearGradient>
<linearGradient id="paint8_linear_2478_5381" x1="81.9277" y1="33.7116" x2="79.8467" y2="-12.6866" gradientUnits="userSpaceOnUse">
<stop stop-color="#6000FF"/>
<stop offset="1" stop-color="#F0C9BD"/>
</linearGradient>
<linearGradient id="paint9_linear_2478_5381" x1="18.0721" y1="66.2884" x2="20.1531" y2="112.687" gradientUnits="userSpaceOnUse">
<stop stop-color="#6000FF"/>
<stop offset="1" stop-color="#F0C9BD"/>
</linearGradient>
</defs>
</svg>
