<svg width="102" height="100" viewBox="0 0 102 100" fill="none" xmlns="http://www.w3.org/2000/svg">
<path d="M8 23H25M32.5 23H50M4.5 37H29.5M12.5 50H22M27 50H37M1 64H25M32.5 64H39M19 77H53" stroke="url(#paint0_linear_2478_5370)" stroke-width="1.5" stroke-linecap="round" stroke-linejoin="round"/>
<path d="M66.9437 67.2853L68.1068 62.6823M73.3644 50.2733C74.933 50.7823 76.2542 51.9187 77.0494 53.4429C77.8446 54.9671 78.0516 56.7599 77.6267 58.4431C77.2018 60.1263 76.1783 61.5684 74.772 62.4652C73.3657 63.3619 71.6866 63.6433 70.0888 63.2498L60.0127 60.3746L66.5521 34.4215L76.6282 37.2967C77.46 37.4947 78.2456 37.8693 78.9378 38.398C79.6299 38.9266 80.2144 39.5985 80.656 40.3732C81.0977 41.1479 81.3874 42.0095 81.5079 42.9062C81.6283 43.8029 81.5769 44.7162 81.3568 45.5912C81.1368 46.4663 80.7525 47.285 80.2271 47.9983C79.7018 48.7116 79.0462 49.3047 78.2997 49.7421C77.5532 50.1794 76.7312 50.4518 75.8831 50.5431C75.035 50.6344 74.1783 50.5426 73.3644 50.2733V50.2733ZM73.3644 50.2733L63.2883 47.398L73.3644 50.2733ZM66.5521 34.4215L62.9797 33.4126L66.5521 34.4215ZM60.0127 60.3746L56.4285 59.3531L60.0127 60.3746ZM69.6615 35.3168L70.8246 30.7139L69.6615 35.3168ZM74.6462 36.7292L75.8093 32.1263L74.6462 36.7292ZM61.9591 65.8603L63.1222 61.2573L61.9591 65.8603Z" stroke="url(#paint1_linear_2478_5370)" stroke-width="1.5" stroke-linecap="round" stroke-linejoin="round"/>
<path d="M101 49C101 59.2175 96.1719 68.3123 88.7614 74.1509C83.3719 78.4175 76.5228 81 69 81C51.2596 81 37 66.7404 37 49C37 41.4772 39.5825 34.7404 43.8491 29.2386H43.9614C49.6877 21.8281 58.7824 17 69 17C86.7403 17 101 31.2596 101 49Z" stroke="url(#paint2_linear_2478_5370)" stroke-width="1.5" stroke-linecap="round" stroke-linejoin="round"/>
<path d="M85.9383 70.5578C84.793 71.4644 83.5709 72.2824 82.282 72.9999C78.3724 75.1764 73.8495 76.4284 69 76.4284C61.4031 76.4284 54.5509 73.3777 49.5955 68.4284M69 21.5713C66.2387 21.5713 63.573 21.9827 61.0634 22.7451M93.4083 36.4284C90.0532 29.8958 84.1548 24.9058 77 22.7451" stroke="url(#paint3_linear_2478_5370)" stroke-width="1.5" stroke-linecap="round" stroke-linejoin="round"/>
<defs>
<linearGradient id="paint0_linear_2478_5370" x1="-30.5059" y1="69.9331" x2="79.1599" y2="-84.5275" gradientUnits="userSpaceOnUse">
<stop stop-color="#6000FF"/>
<stop offset="1" stop-color="#F0C9BD"/>
</linearGradient>
<linearGradient id="paint1_linear_2478_5370" x1="41.1948" y1="62.4993" x2="119.864" y2="-16.6072" gradientUnits="userSpaceOnUse">
<stop stop-color="#6000FF"/>
<stop offset="1" stop-color="#F0C9BD"/>
</linearGradient>
<linearGradient id="paint2_linear_2478_5370" x1="-1.77653" y1="72.6244" x2="126.51" y2="-115.012" gradientUnits="userSpaceOnUse">
<stop stop-color="#6000FF"/>
<stop offset="1" stop-color="#F0C9BD"/>
</linearGradient>
<linearGradient id="paint3_linear_2478_5370" x1="23.05" y1="69.2494" x2="139.644" y2="-66.9516" gradientUnits="userSpaceOnUse">
<stop stop-color="#6000FF"/>
<stop offset="1" stop-color="#F0C9BD"/>
</linearGradient>
</defs>
</svg>
