<svg width="100" height="100" viewBox="0 0 100 100" fill="none" xmlns="http://www.w3.org/2000/svg">
<path d="M26.7149 39.4284L27.4418 36.5516M30.7278 28.7959C31.7082 29.114 32.5339 29.8243 33.0309 30.7769C33.5279 31.7296 33.6573 32.85 33.3917 33.9021C33.1262 34.9541 32.4864 35.8554 31.6075 36.4159C30.7286 36.9763 29.6791 37.1522 28.6805 36.9063L22.383 35.1092L26.4701 18.8885L32.7677 20.6856C33.2875 20.8093 33.7785 21.0434 34.2111 21.3738C34.6437 21.7043 35.009 22.1242 35.2851 22.6084C35.5611 23.0926 35.7422 23.6311 35.8175 24.1915C35.8927 24.7519 35.8606 25.3227 35.7231 25.8696C35.5855 26.4165 35.3453 26.9283 35.017 27.3741C34.6886 27.8199 34.2789 28.1906 33.8123 28.4639C33.3458 28.7372 32.832 28.9075 32.302 28.9646C31.7719 29.0216 31.2365 28.9643 30.7278 28.7959V28.7959ZM30.7278 28.7959L24.4302 26.9989L30.7278 28.7959ZM26.4701 18.8885L24.2374 18.258L26.4701 18.8885ZM22.383 35.1092L20.1428 34.4708L22.383 35.1092ZM28.4135 19.4481L29.1404 16.5713L28.4135 19.4481ZM31.5289 20.3309L32.2558 17.454L31.5289 20.3309ZM23.5994 38.5378L24.3264 35.6609L23.5994 38.5378Z" stroke="url(#paint0_linear_2478_5401)" stroke-width="1.5" stroke-linecap="round" stroke-linejoin="round"/>
<path d="M48 28C48 34.386 44.9825 40.0702 40.3509 43.7193C36.9825 46.386 32.7018 48 28 48C16.9123 48 8 39.0877 8 28C8 23.2982 9.61403 19.0877 12.2807 15.6491H12.3509C15.9298 11.0175 21.614 8 28 8C39.0877 8 48 16.9123 48 28Z" stroke="url(#paint1_linear_2478_5401)" stroke-width="1.5" stroke-linecap="round" stroke-linejoin="round"/>
<path d="M73.7149 84.4284L74.4418 81.5516M77.7278 73.7959C78.7082 74.114 79.5339 74.8243 80.0309 75.7769C80.5279 76.7296 80.6573 77.85 80.3917 78.9021C80.1262 79.9541 79.4864 80.8554 78.6075 81.4159C77.7286 81.9763 76.6791 82.1522 75.6805 81.9063L69.383 80.1092L73.4701 63.8885L79.7677 65.6856C80.2875 65.8093 80.7785 66.0434 81.2111 66.3738C81.6437 66.7043 82.009 67.1242 82.2851 67.6084C82.5611 68.0926 82.7422 68.6311 82.8174 69.1915C82.8927 69.7519 82.8606 70.3227 82.7231 70.8696C82.5855 71.4165 82.3453 71.9283 82.017 72.3741C81.6886 72.8199 81.2789 73.1906 80.8123 73.4639C80.3458 73.7372 79.832 73.9075 79.302 73.9646C78.7719 74.0216 78.2365 73.9643 77.7278 73.7959V73.7959ZM77.7278 73.7959L71.4302 71.9989L77.7278 73.7959ZM73.4701 63.8885L71.2374 63.258L73.4701 63.8885ZM69.383 80.1092L67.1428 79.4708L69.383 80.1092ZM75.4135 64.4481L76.1404 61.5713L75.4135 64.4481ZM78.5289 65.3309L79.2558 62.454L78.5289 65.3309ZM70.5994 83.5378L71.3264 80.6609L70.5994 83.5378Z" stroke="url(#paint2_linear_2478_5401)" stroke-width="1.5" stroke-linecap="round" stroke-linejoin="round"/>
<path d="M92 72C92 78.386 88.9825 84.0702 84.3509 87.7193C80.9825 90.386 76.7018 92 72 92C60.9123 92 52 83.0877 52 72C52 67.2982 53.614 63.0877 56.2807 59.6491H56.3509C59.9298 55.0175 65.614 52 72 52C83.0877 52 92 60.9123 92 72Z" stroke="url(#paint3_linear_2478_5401)" stroke-width="1.5" stroke-linecap="round" stroke-linejoin="round"/>
<path d="M59.9782 71.7535L60.9787 67.8864M60.9787 67.8864C61.0467 67.5674 61.1805 67.265 61.3722 66.9972C61.5639 66.7294 61.8095 66.5018 62.0943 66.3281C62.379 66.1544 62.697 66.0382 63.0291 65.9864C63.3613 65.9346 63.7008 65.9483 64.0272 66.0266C64.3535 66.105 64.6601 66.2465 64.9285 66.4425C65.1969 66.6385 65.4215 66.8851 65.5888 67.1674C65.7562 67.4497 65.8629 67.7618 65.9024 68.0852C65.942 68.4085 65.9136 68.7363 65.819 69.0489L64.8185 72.9159M60.9787 67.8864L61.6091 65.3708" stroke="url(#paint4_linear_2478_5401)" stroke-width="1.5" stroke-linecap="round" stroke-linejoin="round"/>
<path d="M54 27.25C53.5858 27.25 53.25 27.5858 53.25 28C53.25 28.4142 53.5858 28.75 54 28.75V27.25ZM71.25 46C71.25 46.4142 71.5858 46.75 72 46.75C72.4142 46.75 72.75 46.4142 72.75 46H71.25ZM54 28.75H64V27.25H54V28.75ZM71.25 36V46H72.75V36H71.25ZM64 28.75C68.0041 28.75 71.25 31.9959 71.25 36H72.75C72.75 31.1675 68.8325 27.25 64 27.25V28.75Z" fill="url(#paint5_linear_2478_5401)"/>
<path d="M28.75 54C28.75 53.5858 28.4142 53.25 28 53.25C27.5858 53.25 27.25 53.5858 27.25 54H28.75ZM46 72.75C46.4142 72.75 46.75 72.4142 46.75 72C46.75 71.5858 46.4142 71.25 46 71.25V72.75ZM27.25 54V64H28.75V54H27.25ZM36 72.75H46V71.25H36V72.75ZM27.25 64C27.25 68.8325 31.1675 72.75 36 72.75V71.25C31.9959 71.25 28.75 68.0041 28.75 64H27.25Z" fill="url(#paint6_linear_2478_5401)"/>
<defs>
<linearGradient id="paint0_linear_2478_5401" x1="10.6218" y1="36.4372" x2="59.7899" y2="-13.0044" gradientUnits="userSpaceOnUse">
<stop stop-color="#6000FF"/>
<stop offset="1" stop-color="#F0C9BD"/>
</linearGradient>
<linearGradient id="paint1_linear_2478_5401" x1="-16.2353" y1="42.7653" x2="63.9436" y2="-74.5074" gradientUnits="userSpaceOnUse">
<stop stop-color="#6000FF"/>
<stop offset="1" stop-color="#F0C9BD"/>
</linearGradient>
<linearGradient id="paint2_linear_2478_5401" x1="57.6218" y1="81.4372" x2="106.79" y2="31.9956" gradientUnits="userSpaceOnUse">
<stop stop-color="#6000FF"/>
<stop offset="1" stop-color="#F0C9BD"/>
</linearGradient>
<linearGradient id="paint3_linear_2478_5401" x1="27.7647" y1="86.7653" x2="107.944" y2="-30.5074" gradientUnits="userSpaceOnUse">
<stop stop-color="#6000FF"/>
<stop offset="1" stop-color="#F0C9BD"/>
</linearGradient>
<linearGradient id="paint4_linear_2478_5401" x1="65.2944" y1="77.513" x2="45.1193" y2="67.0738" gradientUnits="userSpaceOnUse">
<stop stop-color="#6000FF"/>
<stop offset="1" stop-color="#F0C9BD"/>
</linearGradient>
<linearGradient id="paint5_linear_2478_5401" x1="43.0941" y1="43.6444" x2="79.1746" y2="-9.12835" gradientUnits="userSpaceOnUse">
<stop stop-color="#6000FF"/>
<stop offset="1" stop-color="#F0C9BD"/>
</linearGradient>
<linearGradient id="paint6_linear_2478_5401" x1="17.0941" y1="69.6444" x2="53.1746" y2="16.8716" gradientUnits="userSpaceOnUse">
<stop stop-color="#6000FF"/>
<stop offset="1" stop-color="#F0C9BD"/>
</linearGradient>
</defs>
</svg>
