<svg viewBox="0 0 88 88" fill="none" xmlns="http://www.w3.org/2000/svg">
<path d="M42.8693 52.2969L43.509 49.7653M46.4007 42.9403C47.2634 43.2202 47.9901 43.8453 48.4275 44.6836C48.8648 45.5219 48.9787 46.5079 48.745 47.4337C48.5113 48.3595 47.9483 49.1526 47.1749 49.6458C46.4014 50.1391 45.4779 50.2938 44.5991 50.0774L39.0573 48.496L42.6539 34.2218L48.1958 35.8032C48.6533 35.9121 49.0854 36.1181 49.4661 36.4089C49.8467 36.6996 50.1682 37.0692 50.4111 37.4953C50.654 37.9213 50.8134 38.3952 50.8796 38.8884C50.9458 39.3816 50.9176 39.8839 50.7965 40.3652C50.6755 40.8464 50.4642 41.2968 50.1752 41.6891C49.8863 42.0814 49.5257 42.4076 49.1151 42.6481C48.7045 42.8886 48.2524 43.0385 47.786 43.0887C47.3195 43.1389 46.8483 43.0884 46.4007 42.9403V42.9403ZM46.4007 42.9403L40.8588 41.3589L46.4007 42.9403ZM42.6539 34.2218L40.6891 33.6669L42.6539 34.2218ZM39.0573 48.496L37.0859 47.9342L39.0573 48.496ZM44.3641 34.7142L45.0038 32.1826L44.3641 34.7142ZM47.1057 35.4911L47.7454 32.9594L47.1057 35.4911ZM40.1278 51.5131L40.7675 48.9815L40.1278 51.5131Z" stroke="white" stroke-width="1.5" stroke-linecap="round" stroke-linejoin="round"/>
<path d="M61.6004 42.2401C61.6004 47.8598 58.945 52.8619 54.8692 56.0731C51.905 58.4198 48.1379 59.8401 44.0004 59.8401C34.2432 59.8401 26.4004 51.9973 26.4004 42.2401C26.4004 38.1026 27.8207 34.3973 30.1674 31.3714H30.2292C33.3786 27.2956 38.3807 24.6401 44.0004 24.6401C53.7576 24.6401 61.6004 32.4829 61.6004 42.2401Z" stroke="white" stroke-width="1.5" stroke-linecap="round" stroke-linejoin="round"/>
<path fill-rule="evenodd" clip-rule="evenodd" d="M43.9911 71.5528C59.2066 71.5528 73.1235 60.6126 80.9591 42.3764C73.1235 24.1401 59.2066 13.2 43.9911 13.2H44.0071C28.7915 13.2 14.8746 24.1401 7.03906 42.3764C14.8746 60.6126 28.7915 71.5528 44.0071 71.5528H43.9911Z" stroke="white" stroke-width="1.5" stroke-linecap="round" stroke-linejoin="round"/>
</svg>
