<svg viewBox="0 0 88 88" fill="none" xmlns="http://www.w3.org/2000/svg">
<path d="M42.8693 54.0569L43.509 51.5253M46.4007 44.7003C47.2634 44.9803 47.9901 45.6053 48.4275 46.4436C48.8648 47.2819 48.9787 48.2679 48.745 49.1937C48.5113 50.1195 47.9483 50.9126 47.1749 51.4058C46.4014 51.8991 45.4779 52.0538 44.5991 51.8374L39.0573 50.256L42.6539 35.9818L48.1958 37.5632C48.6533 37.6721 49.0854 37.8781 49.4661 38.1689C49.8467 38.4596 50.1682 38.8292 50.4111 39.2553C50.654 39.6814 50.8134 40.1552 50.8796 40.6484C50.9458 41.1416 50.9176 41.6439 50.7965 42.1252C50.6755 42.6065 50.4642 43.0568 50.1752 43.4491C49.8863 43.8414 49.5257 44.1676 49.1151 44.4081C48.7045 44.6487 48.2524 44.7985 47.786 44.8487C47.3195 44.8989 46.8483 44.8484 46.4007 44.7003V44.7003ZM46.4007 44.7003L40.8588 43.1189L46.4007 44.7003ZM42.6539 35.9818L40.6891 35.4269L42.6539 35.9818ZM39.0573 50.256L37.0859 49.6942L39.0573 50.256ZM44.3641 36.4743L45.0038 33.9426L44.3641 36.4743ZM47.1057 37.2511L47.7454 34.7195L47.1057 37.2511ZM40.1278 53.2732L40.7675 50.7415L40.1278 53.2732Z" stroke="white" stroke-width="1.5" stroke-linecap="round" stroke-linejoin="round"/>
<path d="M61.6004 43.9999C61.6004 49.6196 58.945 54.6217 54.8692 57.8329C51.905 60.1796 48.1379 61.5999 44.0004 61.5999C34.2432 61.5999 26.4004 53.7571 26.4004 43.9999C26.4004 39.8624 27.8207 36.1571 30.1674 33.1311H30.2292C33.3786 29.0553 38.3807 26.3999 44.0004 26.3999C53.7576 26.3999 61.6004 34.2427 61.6004 43.9999Z" stroke="white" stroke-width="1.5" stroke-linecap="round" stroke-linejoin="round"/>
<path d="M9.81055 80.9601C9.81055 81.3743 10.1463 81.7101 10.5605 81.7101C10.9748 81.7101 11.3105 81.3743 11.3105 80.9601H9.81055ZM76.6905 80.9601C76.6905 81.3743 77.0263 81.7101 77.4405 81.7101C77.8548 81.7101 78.1905 81.3743 78.1905 80.9601H76.6905ZM9.81055 18.5601V80.9601H11.3105V18.5601H9.81055ZM18.5605 11.3101H69.4405V9.81006H18.5605V11.3101ZM76.6905 18.5601V80.9601H78.1905V18.5601H76.6905ZM69.4405 11.3101C73.4446 11.3101 76.6905 14.556 76.6905 18.5601H78.1905C78.1905 13.7276 74.273 9.81006 69.4405 9.81006V11.3101ZM11.3105 18.5601C11.3105 14.556 14.5565 11.3101 18.5605 11.3101V9.81006C13.7281 9.81006 9.81055 13.7276 9.81055 18.5601H11.3105Z" fill="white"/>
<path d="M24.6406 73.9199H63.3606" stroke="white" stroke-width="1.5" stroke-linecap="round"/>
</svg>
