<svg viewBox="0 0 480 480" fill="none" xmlns="http://www.w3.org/2000/svg">
<path d="M123.316 361.864L217.212 415.439C232.874 424.376 252.223 423.78 267.306 413.898L268.877 412.868" stroke="#5E5E5E" stroke-linecap="round"/>
<path d="M291.121 399.631L382.438 347.069" stroke="#5E5E5E" stroke-linecap="round"/>
<path d="M406.633 333.053L468.195 297.116C473.477 294.032 473.486 286.403 468.211 283.307L440.194 266.865" stroke="#5E5E5E" stroke-linecap="round"/>
<path d="M321.561 198.729L281.756 175.369" stroke="#5E5E5E" stroke-linecap="round"/>
<path d="M161.17 197.561L183.414 184.323" stroke="#5E5E5E"/>
<path d="M190.83 204.18V216.639C190.83 232.213 216.091 242.067 236.489 241.947C256.828 241.827 280.976 231.824 281.757 216.25V203.401V201.066V193.668" stroke="#5E5E5E"/>
<path d="M281.757 204.57C280.976 220.143 256.828 230.147 236.489 230.266C216.091 230.386 190.83 220.533 190.83 204.959V198.341" stroke="#5E5E5E"/>
<path d="M192.781 212.357V223.648" stroke="#5E5E5E" stroke-linecap="round"/>
<path d="M195.902 216.445V227.923" stroke="#5E5E5E" stroke-linecap="round"/>
<path d="M199.025 219.365V230.656" stroke="#5E5E5E" stroke-linecap="round"/>
<path d="M202.146 221.701V232.992" stroke="#5E5E5E" stroke-linecap="round"/>
<path d="M205.27 223.259V234.55" stroke="#5E5E5E" stroke-linecap="round"/>
<path d="M208.391 224.816V236.107" stroke="#5E5E5E" stroke-linecap="round"/>
<path d="M211.514 225.984V237.275" stroke="#5E5E5E" stroke-linecap="round"/>
<path d="M214.635 227.152V238.443" stroke="#5E5E5E" stroke-linecap="round"/>
<path d="M217.758 227.93V239.221" stroke="#5E5E5E" stroke-linecap="round"/>
<path d="M220.879 228.709V240" stroke="#5E5E5E" stroke-linecap="round"/>
<path d="M224 229.488V240.779" stroke="#5E5E5E" stroke-linecap="round"/>
<path d="M227.123 229.877V241.168" stroke="#5E5E5E" stroke-linecap="round"/>
<path d="M230.244 230.267V241.558" stroke="#5E5E5E" stroke-linecap="round"/>
<path d="M233.367 230.267V241.558" stroke="#5E5E5E" stroke-linecap="round"/>
<path d="M236.488 230.267V241.558" stroke="#5E5E5E" stroke-linecap="round"/>
<path d="M280.195 210.8V222.091" stroke="#5E5E5E" stroke-linecap="round"/>
<path d="M277.074 215.277V226.755" stroke="#5E5E5E" stroke-linecap="round"/>
<path d="M273.951 218.586V229.877" stroke="#5E5E5E" stroke-linecap="round"/>
<path d="M270.83 220.922V232.213" stroke="#5E5E5E" stroke-linecap="round"/>
<path d="M267.709 222.869V234.16" stroke="#5E5E5E" stroke-linecap="round"/>
<path d="M264.586 224.426V235.717" stroke="#5E5E5E" stroke-linecap="round"/>
<path d="M261.465 225.594V236.885" stroke="#5E5E5E" stroke-linecap="round"/>
<path d="M258.342 226.763V238.054" stroke="#5E5E5E" stroke-linecap="round"/>
<path d="M255.221 227.93V239.221" stroke="#5E5E5E" stroke-linecap="round"/>
<path d="M252.098 228.709V240" stroke="#5E5E5E" stroke-linecap="round"/>
<path d="M248.977 229.099V240.39" stroke="#5E5E5E" stroke-linecap="round"/>
<path d="M245.855 229.877V241.168" stroke="#5E5E5E" stroke-linecap="round"/>
<path d="M242.732 230.267V241.558" stroke="#5E5E5E" stroke-linecap="round"/>
<path d="M239.611 230.267V241.558" stroke="#5E5E5E" stroke-linecap="round"/>
<path d="M190.83 194.836V200.286C190.83 215.861 216.091 225.714 236.489 225.594C256.828 225.474 280.976 215.471 281.757 199.897V187.049C281.506 182.938 280.713 180.92 278.245 177.705" stroke="#5E5E5E"/>
<path d="M281.757 188.217C280.977 203.79 256.828 213.794 236.489 213.913C219.992 214.01 200.313 207.584 193.39 196.882L193.172 196.393" stroke="#5E5E5E"/>
<path d="M192.781 196.394V207.295" stroke="#5E5E5E" stroke-linecap="round"/>
<path d="M195.902 200.092V211.57" stroke="#5E5E5E" stroke-linecap="round"/>
<path d="M199.025 203.012V214.303" stroke="#5E5E5E" stroke-linecap="round"/>
<path d="M202.146 205.349V216.639" stroke="#5E5E5E" stroke-linecap="round"/>
<path d="M205.27 206.905V218.196" stroke="#5E5E5E" stroke-linecap="round"/>
<path d="M208.391 208.463V219.754" stroke="#5E5E5E" stroke-linecap="round"/>
<path d="M211.514 209.631V220.922" stroke="#5E5E5E" stroke-linecap="round"/>
<path d="M214.635 210.799V222.09" stroke="#5E5E5E" stroke-linecap="round"/>
<path d="M217.758 211.578V222.869" stroke="#5E5E5E" stroke-linecap="round"/>
<path d="M220.879 212.357V223.648" stroke="#5E5E5E" stroke-linecap="round"/>
<path d="M224 213.135V224.426" stroke="#5E5E5E" stroke-linecap="round"/>
<path d="M227.123 213.524V224.815" stroke="#5E5E5E" stroke-linecap="round"/>
<path d="M230.244 213.914V225.205" stroke="#5E5E5E" stroke-linecap="round"/>
<path d="M233.367 213.914V225.205" stroke="#5E5E5E" stroke-linecap="round"/>
<path d="M236.488 213.914V225.205" stroke="#5E5E5E" stroke-linecap="round"/>
<path d="M280.195 194.446V205.737" stroke="#5E5E5E" stroke-linecap="round"/>
<path d="M277.074 198.924V210.402" stroke="#5E5E5E" stroke-linecap="round"/>
<path d="M273.951 202.234V213.525" stroke="#5E5E5E" stroke-linecap="round"/>
<path d="M270.83 204.57V215.861" stroke="#5E5E5E" stroke-linecap="round"/>
<path d="M267.709 206.516V217.807" stroke="#5E5E5E" stroke-linecap="round"/>
<path d="M264.586 208.074V219.365" stroke="#5E5E5E" stroke-linecap="round"/>
<path d="M261.465 209.242V220.533" stroke="#5E5E5E" stroke-linecap="round"/>
<path d="M258.342 210.41V221.701" stroke="#5E5E5E" stroke-linecap="round"/>
<path d="M255.221 211.578V222.869" stroke="#5E5E5E" stroke-linecap="round"/>
<path d="M252.098 212.357V223.648" stroke="#5E5E5E" stroke-linecap="round"/>
<path d="M248.977 212.746V224.037" stroke="#5E5E5E" stroke-linecap="round"/>
<path d="M245.854 213.524V224.815" stroke="#5E5E5E" stroke-linecap="round"/>
<path d="M242.732 213.914V225.205" stroke="#5E5E5E" stroke-linecap="round"/>
<path d="M239.611 213.914V225.205" stroke="#5E5E5E" stroke-linecap="round"/>
<path d="M273.903 181.089C272.485 196.285 248.732 206.008 228.682 206.126C208.285 206.246 183.023 196.393 183.023 180.819V168.36C183.023 163.299 188.097 154.733 193.95 152.397" stroke="#5E5E5E"/>
<path d="M183.023 169.139C183.023 184.713 208.285 194.566 228.682 194.446C238.064 194.391 248.257 192.232 256.593 188.395" stroke="#5E5E5E"/>
<path d="M184.975 176.537V187.828" stroke="#5E5E5E" stroke-linecap="round"/>
<path d="M188.096 180.624V192.102" stroke="#5E5E5E" stroke-linecap="round"/>
<path d="M191.219 183.545V194.836" stroke="#5E5E5E" stroke-linecap="round"/>
<path d="M194.34 185.881V197.172" stroke="#5E5E5E" stroke-linecap="round"/>
<path d="M197.463 187.438V198.729" stroke="#5E5E5E" stroke-linecap="round"/>
<path d="M200.584 188.996V200.287" stroke="#5E5E5E" stroke-linecap="round"/>
<path d="M203.707 190.163V201.454" stroke="#5E5E5E" stroke-linecap="round"/>
<path d="M206.828 191.331V202.622" stroke="#5E5E5E" stroke-linecap="round"/>
<path d="M209.951 192.11V203.401" stroke="#5E5E5E" stroke-linecap="round"/>
<path d="M213.072 192.889V204.18" stroke="#5E5E5E" stroke-linecap="round"/>
<path d="M216.193 193.667V204.958" stroke="#5E5E5E" stroke-linecap="round"/>
<path d="M219.316 194.057V205.348" stroke="#5E5E5E" stroke-linecap="round"/>
<path d="M222.438 194.446V205.737" stroke="#5E5E5E" stroke-linecap="round"/>
<path d="M225.561 194.446V205.737" stroke="#5E5E5E" stroke-linecap="round"/>
<path d="M228.682 194.446V205.737" stroke="#5E5E5E" stroke-linecap="round"/>
<path d="M272.389 181.987V186.27" stroke="#5E5E5E" stroke-linecap="round"/>
<path d="M269.268 183.934V190.942" stroke="#5E5E5E" stroke-linecap="round"/>
<path d="M266.145 185.18V194.135" stroke="#5E5E5E" stroke-linecap="round"/>
<path d="M263.023 186.659V196.393" stroke="#5E5E5E" stroke-linecap="round"/>
<path d="M259.902 187.438V198.34" stroke="#5E5E5E" stroke-linecap="round"/>
<path d="M256.779 188.606V199.897" stroke="#5E5E5E" stroke-linecap="round"/>
<path d="M253.658 189.774V201.065" stroke="#5E5E5E" stroke-linecap="round"/>
<path d="M250.535 190.942V202.233" stroke="#5E5E5E" stroke-linecap="round"/>
<path d="M247.414 192.11V203.401" stroke="#5E5E5E" stroke-linecap="round"/>
<path d="M244.291 192.889V204.18" stroke="#5E5E5E" stroke-linecap="round"/>
<path d="M241.17 193.278V204.569" stroke="#5E5E5E" stroke-linecap="round"/>
<path d="M238.047 194.057V205.348" stroke="#5E5E5E" stroke-linecap="round"/>
<path d="M234.926 194.446V205.737" stroke="#5E5E5E" stroke-linecap="round"/>
<path d="M231.805 194.446V205.737" stroke="#5E5E5E" stroke-linecap="round"/>
<path d="M193.951 152.787V165.246C193.951 180.82 219.212 190.673 239.61 190.553C259.949 190.433 284.098 180.43 284.878 164.856V152.008" stroke="#5E5E5E"/>
<path d="M239.609 178.873C219.212 178.993 193.951 169.139 193.951 153.565C193.405 138.984 216.511 126.01 239.894 126.311C261.465 126.59 285.065 138.978 284.878 153.176C284.097 168.75 259.949 178.753 239.609 178.873Z" stroke="#5E5E5E"/>
<path d="M195.902 160.963V172.254" stroke="#5E5E5E" stroke-linecap="round"/>
<path d="M199.023 165.051V176.529" stroke="#5E5E5E" stroke-linecap="round"/>
<path d="M202.146 167.972V179.263" stroke="#5E5E5E" stroke-linecap="round"/>
<path d="M205.268 170.307V181.598" stroke="#5E5E5E" stroke-linecap="round"/>
<path d="M208.391 171.865V183.156" stroke="#5E5E5E" stroke-linecap="round"/>
<path d="M211.512 173.422V184.713" stroke="#5E5E5E" stroke-linecap="round"/>
<path d="M214.635 174.59V185.881" stroke="#5E5E5E" stroke-linecap="round"/>
<path d="M217.756 175.758V187.049" stroke="#5E5E5E" stroke-linecap="round"/>
<path d="M220.877 176.537V187.828" stroke="#5E5E5E" stroke-linecap="round"/>
<path d="M224 177.316V188.607" stroke="#5E5E5E" stroke-linecap="round"/>
<path d="M227.121 178.094V189.385" stroke="#5E5E5E" stroke-linecap="round"/>
<path d="M230.244 178.483V189.774" stroke="#5E5E5E" stroke-linecap="round"/>
<path d="M233.365 178.873V190.164" stroke="#5E5E5E" stroke-linecap="round"/>
<path d="M236.488 178.873V190.164" stroke="#5E5E5E" stroke-linecap="round"/>
<path d="M239.609 178.873V190.164" stroke="#5E5E5E" stroke-linecap="round"/>
<path d="M283.316 159.406V170.697" stroke="#5E5E5E" stroke-linecap="round"/>
<path d="M280.195 163.883V175.361" stroke="#5E5E5E" stroke-linecap="round"/>
<path d="M277.072 167.193V178.484" stroke="#5E5E5E" stroke-linecap="round"/>
<path d="M273.951 169.529V180.82" stroke="#5E5E5E" stroke-linecap="round"/>
<path d="M270.828 171.475V182.766" stroke="#5E5E5E" stroke-linecap="round"/>
<path d="M267.707 173.033V184.324" stroke="#5E5E5E" stroke-linecap="round"/>
<path d="M264.586 174.201V185.492" stroke="#5E5E5E" stroke-linecap="round"/>
<path d="M261.463 175.369V186.66" stroke="#5E5E5E" stroke-linecap="round"/>
<path d="M258.342 176.537V187.828" stroke="#5E5E5E" stroke-linecap="round"/>
<path d="M255.219 177.316V188.607" stroke="#5E5E5E" stroke-linecap="round"/>
<path d="M252.098 177.705V188.996" stroke="#5E5E5E" stroke-linecap="round"/>
<path d="M248.975 178.483V189.774" stroke="#5E5E5E" stroke-linecap="round"/>
<path d="M245.854 178.873V190.164" stroke="#5E5E5E" stroke-linecap="round"/>
<path d="M242.73 178.873V190.164" stroke="#5E5E5E" stroke-linecap="round"/>
<path d="M270.44 94.3854C278.313 110.422 282.877 134.438 270.918 142.843L278.599 138.1C280.812 136.733 283.008 135.22 284.371 133.009C290.9 122.42 286.577 102.726 279.806 88.9346C270.49 69.9602 251.708 52.3358 234.927 58.5657L224.781 64.4055C241.562 58.1756 261.125 75.411 270.44 94.3854Z" fill="url(#paint0_linear_2291_7635)"/>
<path d="M219.317 109.959C210.207 89.2759 213.463 69.8567 225.561 64.0165C242.341 57.7866 261.124 75.411 270.439 94.3854C279.805 113.463 284.488 143.832 262.244 145.779C245.64 145.779 226.707 126.737 219.317 109.959Z" fill="url(#paint1_linear_2291_7635)" stroke="#6200FB" stroke-linecap="round"/>
<path d="M225.85 108.891C218.957 92.0864 221.421 76.3093 230.574 71.5644C243.271 66.503 257.482 80.8219 264.531 96.2376C271.617 111.737 275.16 136.41 258.33 137.992C245.767 137.992 231.442 122.521 225.85 108.891Z" stroke="white" stroke-opacity="0.2" stroke-width="0.5" stroke-linecap="round"/>
<path d="M224.781 64.4055L234.927 58.5657C251.708 52.3358 270.49 69.9602 279.806 88.9346C286.378 102.321 290.644 121.267 284.919 132.052C283.357 134.995 280.498 136.927 277.663 138.678L270.83 142.897" stroke="#6200FB" stroke-linecap="round"/>
<path d="M231.154 62.1871L230.727 62.4468L231.246 63.3014L231.674 63.0417L231.154 62.1871ZM240.259 57.8245C240.495 57.6811 240.57 57.3735 240.427 57.1376C240.283 56.9016 239.976 56.8265 239.74 56.9699L240.259 57.8245ZM231.674 63.0417L240.259 57.8245L239.74 56.9699L231.154 62.1871L231.674 63.0417Z" fill="#6200FB"/>
<path d="M236.229 62.5764C235.993 62.7198 235.918 63.0273 236.061 63.2633C236.204 63.4993 236.512 63.5743 236.748 63.4309L236.229 62.5764ZM245.333 58.2137L245.761 57.9541L245.241 57.0995L244.814 57.3591L245.333 58.2137ZM236.748 63.4309L245.333 58.2137L244.814 57.3591L236.229 62.5764L236.748 63.4309Z" fill="#6200FB"/>
<path d="M241.301 63.7446L240.874 64.0042L241.393 64.8588L241.82 64.5992L241.301 63.7446ZM250.406 59.3819C250.642 59.2385 250.717 58.931 250.573 58.695C250.43 58.459 250.122 58.384 249.886 58.5274L250.406 59.3819ZM241.82 64.5992L250.406 59.3819L249.886 58.5274L241.301 63.7446L241.82 64.5992Z" fill="#6200FB"/>
<path d="M245.594 65.6913L245.167 65.9509L245.686 66.8055L246.113 66.5458L245.594 65.6913ZM254.699 61.3286C254.935 61.1852 255.01 60.8777 254.866 60.6417C254.723 60.4057 254.415 60.3306 254.179 60.474L254.699 61.3286ZM246.113 66.5458L254.699 61.3286L254.179 60.474L245.594 65.6913L246.113 66.5458Z" fill="#6200FB"/>
<path d="M249.106 67.6379L248.678 67.8976L249.198 68.7522L249.625 68.4925L249.106 67.6379ZM258.21 63.2753C258.446 63.1319 258.521 62.8243 258.378 62.5883C258.234 62.3523 257.927 62.2773 257.691 62.4207L258.21 63.2753ZM249.625 68.4925L258.21 63.2753L257.691 62.4207L249.106 67.6379L249.625 68.4925Z" fill="#6200FB"/>
<path d="M252.488 70.7909L261.074 65.5736" stroke="#6200FB" stroke-linecap="square"/>
<path d="M255.35 73.0887L254.922 73.3484L255.442 74.203L255.869 73.9433L255.35 73.0887ZM264.454 68.7261C264.69 68.5827 264.765 68.2751 264.622 68.0391C264.479 67.8032 264.171 67.7281 263.935 67.8715L264.454 68.7261ZM255.869 73.9433L264.454 68.7261L263.935 67.8715L255.35 73.0887L255.869 73.9433Z" fill="#6200FB"/>
<path d="M258.082 75.8143L257.655 76.074L258.174 76.9286L258.601 76.6689L258.082 75.8143ZM267.187 71.4517C267.423 71.3083 267.498 71.0007 267.354 70.7648C267.211 70.5288 266.903 70.4537 266.668 70.5971L267.187 71.4517ZM258.601 76.6689L267.187 71.4517L266.668 70.5971L258.082 75.8143L258.601 76.6689Z" fill="#6200FB"/>
<path d="M261.203 78.9292L260.776 79.1889L261.295 80.0434L261.723 79.7838L261.203 78.9292ZM270.308 74.5666C270.544 74.4232 270.619 74.1156 270.476 73.8796C270.332 73.6436 270.025 73.5686 269.789 73.712L270.308 74.5666ZM261.723 79.7838L270.308 74.5666L269.789 73.712L261.203 78.9292L261.723 79.7838Z" fill="#6200FB"/>
<path d="M263.414 82.4709L271.999 77.2537" stroke="#6200FB" stroke-linecap="square"/>
<path d="M265.496 84.7692L265.069 85.0289L265.588 85.8835L266.016 85.6238L265.496 84.7692ZM274.601 80.4066C274.837 80.2632 274.912 79.9556 274.769 79.7197C274.625 79.4837 274.318 79.4086 274.082 79.552L274.601 80.4066ZM266.016 85.6238L274.601 80.4066L274.082 79.552L265.496 84.7692L266.016 85.6238Z" fill="#6200FB"/>
<path d="M267.447 88.2734L267.02 88.533L267.539 89.3876L267.967 89.1279L267.447 88.2734ZM276.552 83.9107C276.788 83.7673 276.863 83.4598 276.72 83.2238C276.576 82.9878 276.269 82.9127 276.033 83.0561L276.552 83.9107ZM267.967 89.1279L276.552 83.9107L276.033 83.0561L267.447 88.2734L267.967 89.1279Z" fill="#6200FB"/>
<path d="M269.268 91.8155L277.853 86.5983" stroke="#6200FB" stroke-linecap="square"/>
<path d="M271.219 94.9299L279.804 89.7127" stroke="#6200FB" stroke-linecap="square"/>
<path d="M272.91 98.3965L272.483 98.6561L273.002 99.5107L273.43 99.251L272.91 98.3965ZM282.015 94.0338C282.251 93.8904 282.326 93.5829 282.183 93.3469C282.039 93.1109 281.732 93.0358 281.496 93.1792L282.015 94.0338ZM273.43 99.251L282.015 94.0338L281.496 93.1792L272.91 98.3965L273.43 99.251Z" fill="#6200FB"/>
<path d="M274.654 102.717L283.24 97.4999" stroke="#6200FB" stroke-linecap="square"/>
<path d="M275.902 106.61L284.488 101.393" stroke="#6200FB" stroke-linecap="square"/>
<path d="M267.447 88.2734L267.02 88.533L267.539 89.3876L267.967 89.1279L267.447 88.2734ZM276.552 83.9107C276.788 83.7673 276.863 83.4598 276.72 83.2238C276.576 82.9878 276.269 82.9127 276.033 83.0561L276.552 83.9107ZM267.967 89.1279L276.552 83.9107L276.033 83.0561L267.447 88.2734L267.967 89.1279Z" fill="#6200FB"/>
<path d="M269.268 91.8155L277.853 86.5983" stroke="#6200FB" stroke-linecap="square"/>
<path d="M271.219 94.9299L279.804 89.7127" stroke="#6200FB" stroke-linecap="square"/>
<path d="M277.232 113.798L276.789 114.029L277.25 114.916L277.694 114.685L277.232 113.798ZM286.669 110.013C286.914 109.886 287.01 109.584 286.882 109.339C286.755 109.094 286.453 108.999 286.208 109.126L286.669 110.013ZM277.694 114.685L286.669 110.013L286.208 109.126L277.232 113.798L277.694 114.685Z" fill="#6200FB"/>
<path d="M277.932 118.291L286.907 113.852" stroke="#6200FB" stroke-linecap="round"/>
<path d="M278.244 121.406L287.22 116.967" stroke="#6200FB" stroke-linecap="round"/>
<path d="M278.244 124.52L287.22 120.082" stroke="#6200FB" stroke-linecap="round"/>
<path d="M278.244 127.635L287.22 123.196" stroke="#6200FB" stroke-linecap="round"/>
<path d="M277.854 130.983L286.829 126.701" stroke="#6200FB" stroke-linecap="round"/>
<path d="M277.072 134.487L285.658 130.205" stroke="#6200FB" stroke-linecap="round"/>
<path d="M276.293 136.824L284.098 133.319" stroke="#6200FB" stroke-linecap="round"/>
<path d="M276.684 110.504L285.269 105.287" stroke="#6200FB" stroke-linecap="square"/>
<path d="M61.2683 254.795L139.707 209.631M39.4146 267.643L15.0803 281.585C8.38947 285.419 8.37178 295.063 15.0485 298.921L101.073 348.627" stroke="#5E5E5E" stroke-linecap="round"/>
<path d="M416.389 253.627L343.023 210.799" stroke="#5E5E5E" stroke-linecap="round"/>
<path d="M281.756 211.189L392.485 275.068C394.962 276.497 396.488 279.139 396.488 281.998V295.399C396.488 298.947 394.608 302.23 391.547 304.025L265.306 378.076C250.39 386.826 231.922 386.876 216.959 378.208L88.8897 304.016C85.8028 302.228 83.9023 298.931 83.9023 295.363V281.617C83.9023 278.753 85.433 276.108 87.9158 274.681L191.61 215.082" stroke="#5E5E5E"/>
<path d="M83.9023 279.713V279.713C83.9023 281.882 85.0577 283.887 86.9344 284.974L216.959 360.298C231.922 368.966 250.39 368.916 265.306 360.167L393.801 284.793C395.465 283.817 396.488 282.032 396.488 280.103V280.103" stroke="#5E5E5E"/>
<path d="M248.782 275.629C253.785 272.967 260.029 271.396 266.198 271.248C272.368 271.1 277.979 272.386 281.849 274.835C285.719 277.283 287.546 280.703 286.943 284.373C286.34 288.043 283.356 291.676 278.618 294.506L247.613 311.977M248.782 275.629C251.393 274.253 253.591 272.622 255.244 270.835C256.897 269.049 257.972 267.142 258.403 265.231C258.834 263.32 258.613 261.443 257.752 259.713C256.892 257.983 255.411 256.436 253.397 255.165C251.383 253.893 248.878 252.924 246.034 252.315C243.189 251.705 240.062 251.469 236.842 251.619C233.622 251.77 230.374 252.304 227.294 253.19C224.214 254.076 221.365 255.295 218.918 256.775L187.913 274.246M248.782 275.629L217.777 293.1M247.613 311.977L187.913 274.246M247.613 311.977L236.588 318.193M187.913 274.246L176.951 280.451M197.505 268.862L186.924 262.164M212.814 260.21L202.233 253.511M267.749 313.28L257.168 306.581M283.095 304.639L272.514 297.941" stroke="#5E5E5E" stroke-linecap="round" stroke-linejoin="round"/>
<path d="M121.366 255.963L138.09 265.696M186.146 313.586L172.878 306.188M172.878 306.188L159.61 298.791L177.561 288.668L150.634 272.997M172.878 306.188L148.293 320.594V329.16L99.9023 301.906V310.471M150.634 272.997L128 286.721L112.39 277.766M150.634 272.997L138.09 265.696M138.09 265.696L160.39 252.848" stroke="#5E5E5E" stroke-linecap="round" stroke-linejoin="round"/>
<path d="M327.416 340.84V334.611L379.318 304.242V293.73L357.464 281.053M345.757 274.262L357.464 281.053M357.464 281.053L379.708 268.033M357.464 281.053L334.05 294.898L315.513 283.996M321.952 258.689L296.977 273.094L315.513 283.996M315.513 283.996L304.781 290.615" stroke="#5E5E5E" stroke-linecap="square" stroke-linejoin="round"/>
<path d="M204.098 361.086V352.91L228.816 338.504M293.464 325.266L284.098 331.106M284.098 331.106L265.367 342.787L243.513 329.938L228.816 338.504M284.098 331.106L264.196 319.037M228.816 338.504L204.879 325.266M178.732 222.869L213.074 243.114M309.074 227.151L288.391 239.133M272.781 248.176L288.391 239.133M288.391 239.133L274.342 230.266" stroke="#5E5E5E" stroke-linecap="round"/>
<path d="M325.463 257.52C325.463 258.165 324.589 258.688 323.512 258.688C322.567 258.688 321.779 258.286 321.6 257.754C321.576 257.679 321.561 257.6 321.561 257.52C321.561 256.876 322.435 256.352 323.512 256.352C323.644 256.352 323.777 256.362 323.902 256.376C324.792 256.483 325.463 256.955 325.463 257.52Z" stroke="#5E5E5E" stroke-linecap="round" stroke-linejoin="round"/>
<path d="M345.756 273.483C345.756 274.128 344.882 274.651 343.805 274.651C342.86 274.651 342.072 274.25 341.893 273.717C341.869 273.642 341.854 273.563 341.854 273.483C341.854 272.839 342.728 272.315 343.805 272.315C343.937 272.315 344.07 272.325 344.195 272.339C345.085 272.446 345.756 272.918 345.756 273.483Z" stroke="#5E5E5E" stroke-linecap="round" stroke-linejoin="round"/>
<path d="M305.17 291.783C305.17 292.428 304.296 292.951 303.219 292.951C302.274 292.951 301.486 292.549 301.307 292.017C301.283 291.942 301.268 291.862 301.268 291.783C301.268 291.138 302.142 290.615 303.219 290.615C303.351 290.615 303.484 290.624 303.609 290.638C304.499 290.746 305.17 291.218 305.17 291.783Z" stroke="#5E5E5E" stroke-linecap="round" stroke-linejoin="round"/>
<path d="M273.17 248.955C273.17 249.6 272.296 250.123 271.219 250.123C270.274 250.123 269.486 249.721 269.307 249.189C269.283 249.114 269.268 249.035 269.268 248.955C269.268 248.31 270.142 247.787 271.219 247.787C271.351 247.787 271.484 247.796 271.609 247.81C272.499 247.918 273.17 248.39 273.17 248.955Z" stroke="#5E5E5E" stroke-linecap="round" stroke-linejoin="round"/>
<path d="M216.195 244.283C216.195 244.928 215.321 245.451 214.244 245.451C213.3 245.451 212.512 245.049 212.332 244.516C212.309 244.442 212.293 244.362 212.293 244.283C212.293 243.638 213.167 243.115 214.244 243.115C214.377 243.115 214.51 243.124 214.634 243.138C215.524 243.246 216.195 243.717 216.195 244.283Z" stroke="#5E5E5E" stroke-linecap="round" stroke-linejoin="round"/>
<path d="M163.902 252.069C163.902 252.714 163.028 253.238 161.951 253.238C161.007 253.238 160.219 252.836 160.039 252.303C160.016 252.228 160 252.149 160 252.069C160 251.425 160.874 250.901 161.951 250.901C162.084 250.901 162.217 250.911 162.341 250.925C163.231 251.032 163.902 251.504 163.902 252.069Z" stroke="#5E5E5E" stroke-linecap="round" stroke-linejoin="round"/>
<path d="M112.391 276.987C112.391 277.632 111.517 278.156 110.44 278.156C109.495 278.156 108.707 277.754 108.527 277.221C108.504 277.146 108.488 277.067 108.488 276.987C108.488 276.343 109.362 275.819 110.44 275.819C110.572 275.819 110.705 275.829 110.83 275.843C111.72 275.95 112.391 276.422 112.391 276.987Z" stroke="#5E5E5E" stroke-linecap="round" stroke-linejoin="round"/>
<path d="M189.658 314.365C189.658 315.009 188.784 315.533 187.707 315.533C186.763 315.533 185.974 315.131 185.795 314.598C185.771 314.523 185.756 314.444 185.756 314.365C185.756 313.72 186.63 313.197 187.707 313.197C187.84 313.197 187.972 313.206 188.097 313.22C188.987 313.327 189.658 313.799 189.658 314.365Z" stroke="#5E5E5E" stroke-linecap="round" stroke-linejoin="round"/>
<path d="M205.268 324.488C205.268 325.132 204.394 325.656 203.316 325.656C202.372 325.656 201.584 325.254 201.404 324.721C201.381 324.646 201.365 324.567 201.365 324.488C201.365 323.843 202.239 323.32 203.316 323.32C203.449 323.32 203.582 323.329 203.707 323.343C204.596 323.45 205.268 323.922 205.268 324.488Z" stroke="#5E5E5E" stroke-linecap="round" stroke-linejoin="round"/>
<path d="M264.586 318.258C264.586 318.903 263.712 319.426 262.635 319.426C261.69 319.426 260.902 319.025 260.723 318.492C260.699 318.417 260.684 318.338 260.684 318.258C260.684 317.614 261.558 317.09 262.635 317.09C262.767 317.09 262.9 317.1 263.025 317.114C263.915 317.221 264.586 317.693 264.586 318.258Z" stroke="#5E5E5E" stroke-linecap="round" stroke-linejoin="round"/>
<path d="M296.975 324.488C296.975 325.132 296.101 325.656 295.023 325.656C294.079 325.656 293.291 325.254 293.111 324.721C293.088 324.646 293.072 324.567 293.072 324.488C293.072 323.843 293.946 323.32 295.023 323.32C295.156 323.32 295.289 323.329 295.414 323.343C296.303 323.45 296.975 323.922 296.975 324.488Z" stroke="#5E5E5E" stroke-linecap="round" stroke-linejoin="round"/>
<path d="M215.992 110.693C205.46 86.8361 209.225 64.4374 223.209 57.7011C242.608 50.5154 264.32 70.8439 275.089 92.7296C285.916 114.734 291.329 149.763 265.615 152.008C246.421 152.008 224.535 130.045 215.992 110.693Z" stroke="#5E5E5E" stroke-linecap="round"/>
<path d="M222 58.155L233.724 51.4621C253.114 44.322 274.817 64.5213 285.58 86.2679C293.434 102.136 298.438 124.819 290.768 136.922C289.227 139.354 286.817 141.052 284.405 142.623L274.12 149.322" stroke="#5E5E5E" stroke-linecap="round"/>
<ellipse cx="112.39" cy="355.246" rx="8.58537" ry="8.56558" fill="#131313"/>
<ellipse cx="112.389" cy="355.246" rx="5.46341" ry="5.45082" fill="url(#paint2_linear_2291_7635)"/>
<ellipse cx="279.415" cy="406.639" rx="8.58537" ry="8.56558" fill="#131313"/>
<ellipse cx="279.415" cy="406.639" rx="5.46341" ry="5.45082" fill="url(#paint3_linear_2291_7635)"/>
<ellipse cx="394.146" cy="339.673" rx="8.58537" ry="8.56558" fill="#131313"/>
<ellipse cx="394.145" cy="339.673" rx="5.46341" ry="5.45082" fill="url(#paint4_linear_2291_7635)"/>
<ellipse cx="429.269" cy="259.468" rx="8.58537" ry="8.56558" fill="#131313"/>
<ellipse cx="429.268" cy="259.468" rx="5.46341" ry="5.45082" fill="url(#paint5_linear_2291_7635)"/>
<ellipse cx="332.488" cy="203.401" rx="8.58537" ry="8.56558" fill="#131313"/>
<ellipse cx="332.487" cy="203.401" rx="5.46341" ry="5.45082" fill="url(#paint6_linear_2291_7635)"/>
<ellipse cx="149.853" cy="203.401" rx="8.58537" ry="8.56558" fill="#131313"/>
<ellipse cx="149.852" cy="203.401" rx="5.46341" ry="5.45082" fill="url(#paint7_linear_2291_7635)"/>
<ellipse cx="50.7318" cy="261.025" rx="8.58537" ry="8.56558" fill="#131313"/>
<path d="M54 258.5C88 233 142.611 235.894 192.5 262.5C249.78 293.047 274.5 368.5 278.5 402.5" stroke="url(#paint8_linear_2291_7635)" stroke-linecap="round"/>
<path d="M116 350.5C129 308 158.091 257.588 209.5 227.5C245.801 206.254 291.5 190.5 325.5 201.5" stroke="url(#paint9_linear_2291_7635)" stroke-linecap="round"/>
<path d="M118 351.5C128 315.5 201.487 264.433 269.5 247.5C327.864 232.969 397 249 423.5 259.5" stroke="url(#paint10_linear_2291_7635)" stroke-linecap="round"/>
<path d="M152 201.5C186 176 237.611 168.894 287.5 195.5C344.78 226.047 389.5 301.5 393.5 335.5" stroke="url(#paint11_linear_2291_7635)" stroke-linecap="round"/>
<ellipse cx="50.7329" cy="261.025" rx="5.46341" ry="5.45082" fill="url(#paint12_linear_2291_7635)"/>
<path d="M252.169 108.779C252.169 108.779 254.276 109.234 254.109 104.811C253.987 100.243 249.516 96.9923 248.224 96.1468L248.145 90.586L245.495 89.0097L245.574 94.5619L243.674 93.4342L243.599 87.8818L240.945 86.3039L241.017 91.858L235.989 88.8695L236.042 92.0239L238.001 93.1954C238.345 93.403 238.641 93.6927 238.864 94.0419C239.087 94.3911 239.232 94.7905 239.288 95.2091C239.288 95.2091 239.482 108.722 239.471 109.412C239.46 110.102 238.946 109.825 238.946 109.825L236.716 108.508L236.109 112.131L241.338 115.213L241.409 120.512L244.077 122.081L244.004 116.785L245.91 117.908L245.984 123.204L248.647 124.77L248.571 119.474L249.614 120.057C253.996 122.342 255.994 120.739 255.924 116.271C255.854 111.802 252.169 108.779 252.169 108.779ZM243.723 96.9482L246.306 98.4809C246.306 98.4809 249.562 100.598 249.601 103.494C249.64 106.391 246.174 104.529 246.174 104.529L243.804 103.125L243.723 96.9482ZM246.808 114.694L243.947 113.005L243.854 106.193L246.971 108.034C246.971 108.034 250.9 110.561 250.947 113.756C250.994 116.952 246.808 114.694 246.808 114.694Z" fill="#DDC6F9"/>
<defs>
<linearGradient id="paint0_linear_2291_7635" x1="287.22" y1="151.229" x2="170.178" y2="-18.6099" gradientUnits="userSpaceOnUse">
<stop stop-color="#6000FF"/>
<stop offset="1" stop-color="#F0C9BD"/>
</linearGradient>
<linearGradient id="paint1_linear_2291_7635" x1="175.23" y1="134.296" x2="399.102" y2="-3.97315" gradientUnits="userSpaceOnUse">
<stop stop-color="#6000FF"/>
<stop offset="1" stop-color="#F0C9BD"/>
</linearGradient>
<linearGradient id="paint2_linear_2291_7635" x1="100.305" y1="359.19" x2="158.263" y2="316.239" gradientUnits="userSpaceOnUse">
<stop stop-color="#6000FF"/>
<stop offset="1" stop-color="#F0C9BD"/>
</linearGradient>
<linearGradient id="paint3_linear_2291_7635" x1="267.331" y1="410.583" x2="325.288" y2="367.632" gradientUnits="userSpaceOnUse">
<stop stop-color="#6000FF"/>
<stop offset="1" stop-color="#F0C9BD"/>
</linearGradient>
<linearGradient id="paint4_linear_2291_7635" x1="382.061" y1="343.616" x2="440.019" y2="300.665" gradientUnits="userSpaceOnUse">
<stop stop-color="#6000FF"/>
<stop offset="1" stop-color="#F0C9BD"/>
</linearGradient>
<linearGradient id="paint5_linear_2291_7635" x1="417.184" y1="263.411" x2="475.142" y2="220.461" gradientUnits="userSpaceOnUse">
<stop stop-color="#6000FF"/>
<stop offset="1" stop-color="#F0C9BD"/>
</linearGradient>
<linearGradient id="paint6_linear_2291_7635" x1="320.403" y1="207.344" x2="378.36" y2="164.394" gradientUnits="userSpaceOnUse">
<stop stop-color="#6000FF"/>
<stop offset="1" stop-color="#F0C9BD"/>
</linearGradient>
<linearGradient id="paint7_linear_2291_7635" x1="137.768" y1="207.344" x2="195.726" y2="164.394" gradientUnits="userSpaceOnUse">
<stop stop-color="#6000FF"/>
<stop offset="1" stop-color="#F0C9BD"/>
</linearGradient>
<linearGradient id="paint8_linear_2291_7635" x1="47.4698" y1="240.417" x2="312.888" y2="346.433" gradientUnits="userSpaceOnUse">
<stop stop-color="#6000FF" stop-opacity="0"/>
<stop offset="0.302083" stop-color="#6000FF" stop-opacity="0.8"/>
<stop offset="0.531411" stop-color="#6000FF"/>
<stop offset="0.744792" stop-color="#6000FF" stop-opacity="0.8"/>
<stop offset="1" stop-color="#6000FF" stop-opacity="0"/>
</linearGradient>
<linearGradient id="paint9_linear_2291_7635" x1="104" y1="363.5" x2="315.875" y2="166.937" gradientUnits="userSpaceOnUse">
<stop stop-color="#6000FF" stop-opacity="0"/>
<stop offset="0.302083" stop-color="#6000FF" stop-opacity="0.8"/>
<stop offset="0.531411" stop-color="#6000FF"/>
<stop offset="0.744792" stop-color="#6000FF" stop-opacity="0.8"/>
<stop offset="1" stop-color="#6000FF" stop-opacity="0"/>
</linearGradient>
<linearGradient id="paint10_linear_2291_7635" x1="104" y1="363.5" x2="398.467" y2="187.396" gradientUnits="userSpaceOnUse">
<stop stop-color="#6000FF" stop-opacity="0"/>
<stop offset="0.302083" stop-color="#6000FF" stop-opacity="0.8"/>
<stop offset="0.531411" stop-color="#6000FF"/>
<stop offset="0.744792" stop-color="#6000FF" stop-opacity="0.8"/>
<stop offset="1" stop-color="#6000FF" stop-opacity="0"/>
</linearGradient>
<linearGradient id="paint11_linear_2291_7635" x1="162.47" y1="173.417" x2="427.888" y2="279.433" gradientUnits="userSpaceOnUse">
<stop stop-color="#6000FF" stop-opacity="0"/>
<stop offset="0.302083" stop-color="#6000FF" stop-opacity="0.8"/>
<stop offset="0.531411" stop-color="#6000FF"/>
<stop offset="0.744792" stop-color="#6000FF" stop-opacity="0.8"/>
<stop offset="1" stop-color="#6000FF" stop-opacity="0"/>
</linearGradient>
<linearGradient id="paint12_linear_2291_7635" x1="38.6492" y1="264.968" x2="96.6064" y2="222.017" gradientUnits="userSpaceOnUse">
<stop stop-color="#6000FF"/>
<stop offset="1" stop-color="#F0C9BD"/>
</linearGradient>
</defs>
</svg>
