<svg width="48" height="48" viewBox="0 0 48 48" fill="none" xmlns="http://www.w3.org/2000/svg">
<g clip-path="url(#clip0_2249_20709)">
<path d="M32.6307 16.2088C35.4462 20.346 36.8367 25.0126 36.3169 30.385C36.3147 30.4077 36.3029 30.4286 36.2842 30.4423C34.152 32.0069 32.0863 32.9565 30.0495 33.5862C30.0336 33.5911 30.0166 33.5908 30.0009 33.5855C29.9852 33.5802 29.9716 33.5701 29.9619 33.5567C29.4914 32.9023 29.0638 32.2125 28.6892 31.4881C28.6677 31.4454 28.6874 31.394 28.7316 31.3772C29.4106 31.1215 30.0563 30.8151 30.6774 30.4522C30.7263 30.4236 30.7294 30.3535 30.6843 30.3199C30.5524 30.2221 30.4219 30.1193 30.2969 30.0165C30.2735 29.9975 30.2421 29.9938 30.2156 30.0066C26.1835 31.8674 21.7665 31.8674 17.6867 30.0066C17.6602 29.9947 17.6287 29.9988 17.606 30.0175C17.4813 30.1202 17.3504 30.2221 17.2199 30.3199C17.1747 30.3535 17.1784 30.4236 17.2276 30.4522C17.8487 30.8082 18.4944 31.1215 19.1725 31.3785C19.2164 31.3953 19.2373 31.4454 19.2155 31.4881C18.849 32.2134 18.4215 32.9033 17.9422 33.5576C17.9213 33.5841 17.887 33.5962 17.8546 33.5862C15.8275 32.9565 13.7617 32.0069 11.6296 30.4423C11.6118 30.4286 11.5991 30.4068 11.5972 30.384C11.1628 25.737 12.0481 21.0318 15.28 16.2079C15.2878 16.1951 15.2996 16.1852 15.3133 16.1792C16.9036 15.4498 18.6072 14.9132 20.3878 14.6068C20.4202 14.6018 20.4527 14.6167 20.4695 14.6454C20.6895 15.0347 20.941 15.5339 21.1111 15.9419C22.988 15.6554 24.8943 15.6554 26.8104 15.9419C26.9806 15.5427 27.2233 15.0347 27.4424 14.6454C27.4502 14.6312 27.4623 14.6198 27.477 14.6129C27.4916 14.6059 27.5081 14.6038 27.5241 14.6068C29.3056 14.9142 31.0093 15.4508 32.5983 16.1792C32.6123 16.1852 32.6238 16.1951 32.6307 16.2088ZM22.0653 25.0444C22.085 23.6706 21.0828 22.5339 19.8247 22.5339C18.577 22.5339 17.5845 23.6607 17.5845 25.0444C17.5845 26.4278 18.5966 27.5546 19.8247 27.5546C21.0728 27.5546 22.0653 26.4278 22.0653 25.0444ZM30.3489 25.0444C30.3686 23.6706 29.3664 22.5339 28.1087 22.5339C26.8606 22.5339 25.8681 23.6607 25.8681 25.0444C25.8681 26.4278 26.8802 27.5546 28.1087 27.5546C29.3664 27.5546 30.3489 26.4278 30.3489 25.0444Z" fill="white"/>
</g>
<defs>
<clipPath id="clip0_2249_20709">
<rect width="26" height="19" fill="white" transform="translate(11 14.5996)"/>
</clipPath>
</defs>
</svg>
