<svg width="48" height="48" viewBox="0 0 48 48" fill="none" xmlns="http://www.w3.org/2000/svg">
<path d="M23.9497 11C16.7987 11 11 16.9598 11 24.3118C11 30.1934 14.7105 35.1832 19.8558 36.9434C20.503 37.0666 20.7407 36.6547 20.7407 36.303C20.7407 35.9856 20.7286 34.9369 20.7231 33.8246C17.1204 34.6299 16.3602 32.254 16.3602 32.254C15.7711 30.7153 14.9223 30.3063 14.9223 30.3063C13.7475 29.48 15.0109 29.4969 15.0109 29.4969C16.3113 29.5909 16.996 30.8688 16.996 30.8688C18.151 32.9039 20.0255 32.3155 20.7644 31.9755C20.8806 31.115 21.2163 30.5278 21.5866 30.1954C18.7103 29.8587 15.6866 28.7173 15.6866 23.6166C15.6866 22.1633 16.1925 20.9757 17.0209 20.0435C16.8865 19.7082 16.4432 18.3543 17.1464 16.5207C17.1464 16.5207 18.2338 16.1629 20.7085 17.8852C21.7414 17.5902 22.8492 17.4423 23.9497 17.4373C25.0503 17.4423 26.1589 17.5902 27.1938 17.8852C29.6656 16.1629 30.7515 16.5207 30.7515 16.5207C31.4563 18.3543 31.0129 19.7082 30.8784 20.0435C31.7087 20.9757 32.2111 22.1632 32.2111 23.6166C32.2111 28.7294 29.1817 29.8552 26.2982 30.1847C26.7626 30.5979 27.1765 31.408 27.1765 32.6499C27.1765 34.431 27.1614 35.8645 27.1614 36.303C27.1614 36.6573 27.3945 37.0724 28.051 36.9417C33.1935 35.1794 36.8994 30.1914 36.8994 24.3118C36.8994 16.9598 31.1015 11 23.9497 11Z" fill="white"/>
<path d="M15.8507 29.964C15.8223 30.0301 15.721 30.0499 15.6288 30.0046C15.5349 29.9612 15.4821 29.871 15.5125 29.8046C15.5405 29.7365 15.6418 29.7175 15.7356 29.7632C15.8297 29.8066 15.8834 29.8976 15.8507 29.964ZM16.4878 30.5482C16.426 30.6071 16.3052 30.5798 16.2233 30.4868C16.1386 30.3939 16.1227 30.2699 16.1854 30.2101C16.2491 30.1513 16.3662 30.1788 16.4511 30.2717C16.5358 30.3655 16.5522 30.4888 16.4877 30.5484L16.4878 30.5482ZM16.9248 31.2958C16.8454 31.3525 16.7156 31.2993 16.6354 31.1809C16.5561 31.0626 16.5561 30.9207 16.6372 30.8638C16.7176 30.8069 16.8454 30.858 16.9266 30.9755C17.0058 31.0958 17.0058 31.2378 16.9247 31.2959L16.9248 31.2958ZM17.6638 32.1616C17.5928 32.242 17.4416 32.2205 17.3309 32.1106C17.2178 32.0033 17.1862 31.851 17.2574 31.7705C17.3292 31.6899 17.4812 31.7125 17.5928 31.8214C17.7052 31.9286 17.7395 32.082 17.6639 32.1616H17.6638ZM18.6189 32.4539C18.5877 32.5581 18.442 32.6055 18.2954 32.5612C18.1489 32.5156 18.053 32.3935 18.0826 32.2881C18.1131 32.1832 18.2593 32.1338 18.4071 32.1812C18.5533 32.2266 18.6494 32.3478 18.619 32.4539H18.6189ZM19.706 32.5778C19.7096 32.6877 19.5852 32.7787 19.4313 32.7807C19.2764 32.7841 19.1511 32.6953 19.1495 32.5873C19.1495 32.4765 19.2711 32.3863 19.4259 32.3836C19.5798 32.3805 19.706 32.4687 19.706 32.5778ZM20.7738 32.5358C20.7923 32.6429 20.6853 32.7529 20.5324 32.7821C20.3821 32.8103 20.2429 32.7442 20.2238 32.6381C20.2051 32.5282 20.3141 32.4183 20.4642 32.3898C20.6173 32.3624 20.7543 32.4269 20.7738 32.5358Z" fill="white"/>
</svg>
