<svg width="48" height="48" viewBox="0 0 48 48" fill="none" xmlns="http://www.w3.org/2000/svg">
<path d="M19.8481 33.9878C29.2655 33.9878 34.4155 26.183 34.4155 19.4149C34.4155 19.1933 34.411 18.9726 34.401 18.7529C35.4031 18.0275 36.268 17.1294 36.955 16.1007C36.0376 16.5087 35.0504 16.7833 34.0147 16.9071C35.0718 16.273 35.8833 15.2699 36.2662 14.0742C35.2612 14.6706 34.1617 15.0911 33.0151 15.3174C32.0808 14.3219 30.7507 13.6992 29.2778 13.6992C26.4504 13.6992 24.1576 15.9929 24.1576 18.8203C24.1576 19.2223 24.2026 19.6131 24.2904 19.9882C20.0351 19.774 16.2619 17.7359 13.7366 14.6369C13.2818 15.4185 13.0425 16.3068 13.0433 17.2112C13.0433 18.9882 13.9472 20.5568 15.3217 21.4746C14.5087 21.4497 13.7135 21.23 13.003 20.834C13.0022 20.8555 13.0022 20.8764 13.0022 20.8994C13.0022 23.3798 14.767 25.4508 17.1097 25.9201C16.6697 26.04 16.2157 26.1006 15.7597 26.1003C15.4303 26.1003 15.1094 26.0679 14.7974 26.008C15.4493 28.0431 17.3393 29.524 19.5803 29.5654C17.8279 30.9394 15.6204 31.7578 13.2213 31.7578C12.8131 31.7581 12.4053 31.7344 12 31.6868C14.2659 33.1397 16.9565 33.9875 19.8483 33.9875" fill="white"/>
</svg>
