<svg viewBox="0 0 125 48" fill="currentColor" xmlns="http://www.w3.org/2000/svg">
<g style="mix-blend-mode:luminosity">
<path d="M25.6099 27.1435C23.8736 34.109 16.82 38.3462 9.85445 36.6099C2.89259 34.8736 -1.34579 27.8195 0.391326 20.8557C2.12681 13.8901 9.18007 9.65177 16.1431 11.3881C23.1078 13.1244 27.3458 20.1792 25.6095 27.1435H25.6099Z"/>
<path d="M18.7321 22.1475C18.9909 20.4177 17.6738 19.4878 15.8729 18.8674L16.4571 16.5242L15.0308 16.1687L14.462 18.4502C14.0821 18.3569 13.7013 18.2672 13.3196 18.1813L13.8925 15.8848L12.4665 15.5293L11.8823 17.8717C11.572 17.801 11.2673 17.7312 10.9715 17.6576L10.9732 17.6503L9.00611 17.1592L8.62667 18.6826C8.62667 18.6826 9.68495 18.9251 9.6626 18.9401C10.2403 19.0844 10.3447 19.4666 10.3272 19.7697L9.66179 22.4392C9.7016 22.4493 9.7532 22.4643 9.81007 22.4867L9.65935 22.4493L8.72661 26.1888C8.65592 26.3643 8.47677 26.6276 8.07255 26.5276C8.08718 26.5483 7.03621 26.2688 7.03621 26.2688L6.32812 27.902L8.18427 28.3651C8.52958 28.4512 8.86798 28.5418 9.20111 28.6271L8.61083 30.9972L10.0355 31.3526L10.6197 29.0074C11.0089 29.1134 11.3867 29.2105 11.7564 29.3027L11.1738 31.6366L12.5998 31.9921L13.1905 29.6265C15.6227 30.0868 17.4516 29.9011 18.2214 27.7017C18.8418 25.9304 18.1905 24.9087 16.9109 24.2421C17.8428 24.0268 18.5448 23.4137 18.7321 22.1475ZM15.4728 26.7169C15.032 28.4882 12.0497 27.5311 11.0828 27.2906L11.8661 24.1507C12.833 24.3924 15.9334 24.8701 15.4728 26.7169ZM15.9139 22.1223C15.5118 23.733 13.0296 22.9145 12.2244 22.7138L12.9345 19.866C13.7397 20.0667 16.3328 20.4412 15.9139 22.1219V22.1223Z" fill="#111111"/>
<path d="M38.0985 18.8645C39.1528 18.8645 40.0636 19.0534 40.8285 19.4243C41.598 19.7989 42.2325 20.3034 42.7415 20.938C43.2437 21.5758 43.6174 22.3212 43.8587 23.1756C44.0984 24.0328 44.2187 24.9533 44.2187 25.9389C44.2187 27.4542 43.9412 28.8842 43.381 30.2329C42.8204 31.5837 42.0607 32.7557 41.0938 33.7551C40.1277 34.7532 38.987 35.5397 37.6716 36.1211C36.3582 36.7028 34.9302 36.9937 33.397 36.9937C33.1988 36.9937 32.8502 36.988 32.3579 36.9778C31.8655 36.9677 31.2996 36.9169 30.6658 36.8316C29.9846 36.7343 29.309 36.6017 28.6415 36.4343C27.943 36.2656 27.2644 36.0232 26.6172 35.7112L32.3095 11.7921L37.4079 11.0024L35.3698 19.4901C35.7936 19.2985 36.2335 19.1447 36.6844 19.0302C37.1472 18.9177 37.6219 18.8621 38.0981 18.8645H38.0985ZM33.822 32.9491C34.5898 32.9491 35.3129 32.7602 35.993 32.3897C36.6765 32.016 37.2764 31.5064 37.7557 30.8922C38.2565 30.2519 38.6506 29.5348 38.9228 28.7688C39.2082 27.9769 39.3531 27.1413 39.351 26.2996C39.351 25.2466 39.1751 24.4268 38.8245 23.8325C38.4739 23.2414 37.8251 22.944 36.8826 22.944C36.5739 22.944 36.1766 23.0029 35.6834 23.1081C35.1886 23.2199 34.7458 23.4518 34.3489 23.8008L32.1783 32.8146C32.3091 32.8378 32.4249 32.8597 32.5236 32.8804C32.6203 32.9028 32.7267 32.9186 32.8336 32.9296C32.9461 32.9422 33.0749 32.9487 33.2305 32.9487L33.8216 32.9491H33.822ZM49.506 36.5362H44.6363L48.7487 19.2313H53.6517L49.506 36.5362ZM51.8756 17.1229C51.2112 17.1284 50.5636 16.9148 50.0329 16.5152C49.4816 16.1122 49.2082 15.4918 49.2082 14.6558C49.2082 14.1959 49.3016 13.7645 49.4873 13.3574C49.6667 12.9631 49.9183 12.6058 50.2291 12.304C50.5406 12.0067 50.9023 11.7669 51.2975 11.5959C51.7088 11.4201 52.1518 11.3308 52.5991 11.3335C53.2784 11.3335 53.891 11.5358 54.4402 11.9412C54.987 12.3487 55.2621 12.969 55.2621 13.8006C55.2648 14.2495 55.1691 14.6935 54.9818 15.1014C54.8041 15.4961 54.5532 15.8536 54.2424 16.1548C53.9316 16.4525 53.5697 16.6917 53.174 16.8609C52.7669 17.0388 52.3355 17.1229 51.8756 17.1229ZM57.9193 14.9198L63.0198 14.1297L61.7673 19.2305H67.2297L66.2433 23.2434H60.8138L59.3676 29.2965C59.2344 29.8007 59.1588 30.2719 59.1377 30.7102C59.1133 31.1502 59.1694 31.528 59.301 31.8461C59.4318 32.165 59.6666 32.4108 60.0078 32.5843C60.3479 32.761 60.8342 32.85 61.472 32.85C61.9972 32.85 62.5095 32.8 63.0035 32.7009C63.5111 32.6003 64.0107 32.4631 64.4985 32.2906L64.8625 36.0422C64.1636 36.2953 63.4494 36.5036 62.724 36.6658C61.955 36.843 61.0446 36.9279 59.9924 36.9279C58.4795 36.9279 57.3067 36.7032 56.4711 36.2563C55.6366 35.8062 55.0468 35.1903 54.6937 34.4112C54.3456 33.6352 54.19 32.7403 54.2335 31.7316C54.2781 30.7208 54.4309 29.6581 54.6937 28.5397L57.9193 14.9198ZM67.0156 29.6264C67.0156 28.1355 67.2569 26.7302 67.7387 25.414C68.2201 24.0969 68.9136 22.9452 69.813 21.9572C70.7096 20.9741 71.802 20.1945 73.0882 19.6225C74.3671 19.0538 75.8003 18.767 77.379 18.767C78.3678 18.767 79.2506 18.8604 80.0277 19.0477C80.8077 19.2366 81.5129 19.4808 82.1512 19.7871L80.4721 23.6058C80.0246 23.4259 79.569 23.2668 79.1067 23.1289C78.6355 22.9838 78.0607 22.914 77.3802 22.914C75.7544 22.914 74.4698 23.4746 73.5135 24.5909C72.5605 25.7085 72.0807 27.2129 72.0807 29.1003C72.0807 30.2187 72.3224 31.1226 72.8067 31.8144C73.2885 32.5063 74.1786 32.8508 75.4708 32.8508C76.1082 32.8508 76.7241 32.7841 77.3136 32.6541C77.9075 32.5225 78.432 32.3568 78.8939 32.161L79.2579 36.0756C78.5916 36.3311 77.9104 36.546 77.2181 36.7191C76.4706 36.9019 75.5821 36.9961 74.5515 36.9961C73.1914 36.9961 72.0393 36.7975 71.0976 36.405C70.1551 36.0073 69.3763 35.4788 68.7625 34.8093C68.1458 34.1382 67.7034 33.3541 67.4296 32.4551C67.1558 31.5561 67.0152 30.6107 67.0152 29.6264H67.0156ZM88.6483 36.9949C87.486 36.9949 86.4761 36.8178 85.6197 36.4672C84.7658 36.117 84.0589 35.6246 83.4991 34.9868C82.9385 34.3523 82.5196 33.6003 82.2324 32.7338C81.9452 31.8676 81.8071 30.9085 81.8071 29.8575C81.8071 28.5397 82.0183 27.2218 82.4465 25.9068C82.8727 24.5905 83.5044 23.4067 84.3396 22.355C85.1696 21.3016 86.1933 20.4403 87.3974 19.7688C88.6011 19.1017 89.9852 18.7662 91.5407 18.7662C92.6819 18.7662 93.6857 18.9437 94.5543 19.2943C95.4184 19.6441 96.1301 20.1401 96.6928 20.7747C97.2493 21.4125 97.6726 22.1612 97.9562 23.0293C98.243 23.8934 98.3844 24.855 98.3844 25.9068C98.3844 27.2206 98.1756 28.5393 97.7616 29.8571C97.3468 31.1693 96.7314 32.3555 95.9189 33.4094C95.108 34.4615 94.0944 35.322 92.8761 35.9907C91.6602 36.6597 90.2493 36.9949 88.6483 36.9949ZM91.0817 22.9144C90.3598 22.9144 89.7216 23.1236 89.1752 23.5375C88.6267 23.9564 88.1665 24.4833 87.7952 25.1178C87.4198 25.7557 87.1419 26.4512 86.9538 27.2072C86.7669 27.9648 86.6755 28.6819 86.6755 29.3615C86.6755 30.4596 86.8531 31.3156 87.2008 31.9306C87.5534 32.5424 88.188 32.8508 89.1094 32.8508C89.8337 32.8508 90.4691 32.6424 91.0183 32.2243C91.5635 31.8087 92.025 31.2818 92.3987 30.6452C92.7717 30.0115 93.0524 29.3136 93.2405 28.5559C93.4245 27.8007 93.5184 27.0804 93.5184 26.4012C93.5184 25.3059 93.342 24.4488 92.9902 23.8341C92.6401 23.2219 92.0026 22.914 91.0817 22.914V22.9144ZM103.691 36.5362H98.8178L102.93 19.2313H107.835L103.691 36.5362ZM106.057 17.1229C105.393 17.1285 104.746 16.9149 104.216 16.5152C103.667 16.1122 103.392 15.4918 103.392 14.6558C103.392 14.1959 103.487 13.7645 103.672 13.3574C103.85 12.9626 104.102 12.6052 104.413 12.304C104.725 12.0066 105.087 11.7668 105.483 11.5959C105.892 11.4201 106.334 11.3308 106.78 11.3335C107.461 11.3335 108.076 11.5358 108.624 11.9412C109.172 12.3487 109.448 12.969 109.448 13.8006C109.448 14.2621 109.35 14.6952 109.166 15.1014C108.982 15.5077 108.734 15.8574 108.428 16.1548C108.117 16.4518 107.755 16.6909 107.36 16.8609C106.951 17.0388 106.52 17.1229 106.057 17.1229ZM111.345 20.0182C111.715 19.9102 112.127 19.7802 112.576 19.6388C113.075 19.4841 113.581 19.3534 114.092 19.2472C114.648 19.1253 115.276 19.0258 115.966 18.949C116.656 18.8706 117.443 18.8324 118.316 18.8324C120.885 18.8324 122.655 19.5803 123.633 21.0716C124.609 22.563 124.778 24.6035 124.145 27.1909L121.904 36.5346H117.003L119.174 27.3871C119.306 26.8164 119.41 26.2639 119.487 25.7244C119.565 25.1898 119.56 24.7181 119.47 24.3106C119.39 23.92 119.175 23.57 118.863 23.3222C118.542 23.0708 118.056 22.9444 117.398 22.9444C116.746 22.947 116.096 23.0139 115.458 23.1443L112.266 36.5334H107.362L111.345 20.0182Z" fill="currentColor" />
</g>
</svg>
