<svg viewBox="0 0 128 48" fill="currentColor" xmlns="http://www.w3.org/2000/svg">
<g style="mix-blend-mode:luminosity">
<path fill-rule="evenodd" clip-rule="evenodd" d="M14.183 29.8075L12.4448 28.0269C11.83 28.6204 11.1517 29.108 10.4309 29.5107C9.66781 29.8923 8.81989 30.0831 7.97196 30.0619C7.27242 30.0619 6.57288 29.9135 5.91574 29.6167C5.30099 29.32 4.72864 28.9172 4.28348 28.4296C3.81712 27.9209 3.45675 27.3061 3.22357 26.649C2.96919 25.9494 2.842 25.2075 2.842 24.4656C2.842 23.7236 2.96919 23.0029 3.22357 22.3034C3.47795 21.6674 3.83832 21.0739 4.28348 20.5439C4.74984 20.0352 5.30099 19.6324 5.91574 19.3568C6.55168 19.06 7.25122 18.9116 7.97196 18.9116C8.79869 18.8905 9.62542 19.0812 10.3462 19.4628C11.0669 19.8444 11.724 20.3107 12.3176 20.8619L14.077 18.8269C13.7167 18.4665 13.3139 18.1485 12.9111 17.8517C12.4872 17.555 12.042 17.3006 11.5544 17.0886C11.0457 16.8554 10.4945 16.6858 9.94339 16.5798C9.30744 16.4527 8.6503 16.3891 7.99316 16.4103C6.86965 16.3891 5.76735 16.6222 4.74984 17.0462C3.79592 17.449 2.9268 18.0425 2.20606 18.7845C1.50652 19.5264 0.955369 20.3743 0.573803 21.3282C0.192236 22.3246 -0.0197468 23.4057 0.00145135 24.4868C0.00145135 25.5679 0.192235 26.649 0.595 27.6453C0.976567 28.5992 1.54892 29.4683 2.24846 30.2103C2.96919 30.931 3.81712 31.5246 4.74984 31.9273C5.74615 32.3513 6.82726 32.5633 7.90837 32.5633C8.58671 32.5633 9.24385 32.4997 9.90099 32.3725C10.4733 32.2453 11.0245 32.0757 11.5333 31.8213C12.0208 31.567 12.5084 31.2914 12.9535 30.9522C13.3563 30.6342 13.7803 30.2315 14.183 29.8075Z" fill="currentColor"/>
<path fill-rule="evenodd" clip-rule="evenodd" d="M49.4358 20.8416C49.4358 20.3117 49.6902 19.8241 50.093 19.5061C50.5381 19.1458 51.1529 18.9762 51.9584 18.9762C52.6791 18.9762 53.3787 19.1246 54.057 19.4001C54.799 19.7181 55.5197 20.1209 56.1556 20.5872L57.6183 18.5098C56.8552 17.8951 55.9861 17.3863 55.0745 17.0471C54.0994 16.6868 53.0607 16.5172 52.022 16.5384C51.3013 16.5384 50.5805 16.6444 49.9022 16.8564C49.2874 17.0471 48.7151 17.3651 48.2487 17.7891C47.7824 18.1918 47.422 18.6794 47.1676 19.2306C46.892 19.8029 46.7437 20.4389 46.7649 21.096C46.7437 21.7319 46.8708 22.3679 47.104 22.9402C47.3372 23.449 47.6764 23.873 48.1003 24.2333C48.5879 24.6149 49.1391 24.9117 49.7114 25.1236C50.4321 25.378 51.1741 25.59 51.916 25.7596C52.5096 25.908 53.1031 26.0776 53.6755 26.2683C54.057 26.3955 54.3962 26.5651 54.7354 26.7983C54.9685 26.9467 55.1593 27.1587 55.2653 27.413C55.3713 27.6462 55.4137 27.9006 55.4137 28.1762C55.4349 28.7485 55.1593 29.2997 54.6718 29.6177C54.0782 29.9992 53.3787 30.19 52.6791 30.1688C51.7888 30.19 50.8773 29.9992 50.0506 29.6389C49.2238 29.2361 48.4607 28.7485 47.7824 28.1338L46.1289 30.084C47.8672 31.7163 50.1778 32.6066 52.5732 32.5854C53.3363 32.5854 54.0994 32.4794 54.8202 32.2674C55.4561 32.0766 56.0497 31.7587 56.5584 31.3559C57.046 30.9531 57.4275 30.4656 57.6819 29.8932C57.9575 29.2573 58.0847 28.6001 58.0847 27.9006C58.0847 27.3071 57.9787 26.7347 57.7667 26.1836C57.5547 25.696 57.2367 25.2508 56.834 24.9117C56.3676 24.5089 55.8377 24.1909 55.2653 23.9789C54.5658 23.7034 53.845 23.4702 53.1031 23.2794C52.3612 23.1098 51.7464 22.919 51.2801 22.7706C50.8773 22.6435 50.5169 22.4739 50.1566 22.2407C49.9022 22.0923 49.7114 21.8591 49.5842 21.6047C49.4782 21.3716 49.4358 21.1172 49.4358 20.8416Z" fill="currentColor"/>
<path fill-rule="evenodd" clip-rule="evenodd" d="M79.7058 21.055V32.2052H82.398V16.667H79.4939L74.7879 24.0227L70.0819 16.667H67.1777V32.2052H69.8699V21.0974L74.7243 28.3896H74.8091L79.7058 21.055Z" fill="currentColor"/>
<path fill-rule="evenodd" clip-rule="evenodd" d="M105.08 24.5273C105.08 25.2692 104.953 25.9899 104.698 26.6895C104.465 27.3466 104.084 27.9402 103.617 28.4489C102.642 29.4876 101.286 30.0812 99.8653 30.06C99.1445 30.06 98.4026 29.9116 97.7455 29.6148C97.1095 29.318 96.5372 28.9153 96.0708 28.4065C95.6044 27.8978 95.2229 27.283 94.9897 26.6259C94.4597 25.2268 94.4597 23.7005 94.9897 22.3015C95.2229 21.6443 95.5832 21.0508 96.0496 20.542C97.0247 19.5033 98.3814 18.9098 99.8017 18.931C100.522 18.931 101.264 19.0794 101.922 19.3761C102.557 19.6729 103.13 20.0757 103.596 20.5844C104.063 21.0932 104.444 21.7079 104.698 22.3651C104.953 23.0434 105.08 23.7853 105.08 24.5273ZM107.942 24.4637C107.942 23.3826 107.751 22.3227 107.348 21.3264C106.967 20.3724 106.416 19.5033 105.695 18.7614C104.974 18.0194 104.105 17.4259 103.151 17.0231C102.112 16.578 100.989 16.366 99.8653 16.3872C97.6607 16.366 95.5408 17.2351 93.9934 18.8038C93.2514 19.5457 92.6791 20.4148 92.2975 21.3899C91.492 23.4038 91.492 25.6296 92.2975 27.6434C92.6791 28.5973 93.2514 29.4664 93.951 30.2084C94.6717 30.9503 95.5408 31.5438 96.4948 31.9466C97.5335 32.3918 98.657 32.6038 99.7805 32.5826C100.904 32.6038 102.028 32.3706 103.066 31.9254C104.041 31.5227 104.91 30.9079 105.631 30.166C106.373 29.424 106.945 28.5549 107.327 27.5798C107.751 26.6047 107.942 25.5448 107.942 24.4637Z" fill="currentColor"/>
<path fill-rule="evenodd" clip-rule="evenodd" d="M119.284 20.8416C119.284 20.3116 119.538 19.8241 119.941 19.5061C120.386 19.1458 121.001 18.9762 121.807 18.9762C122.527 18.9762 123.227 19.1246 123.905 19.4001C124.647 19.7181 125.368 20.1209 126.004 20.5872L127.467 18.5098C126.703 17.8951 125.834 17.4075 124.923 17.0471C123.948 16.6868 122.909 16.5172 121.87 16.5384C121.149 16.5384 120.429 16.6444 119.75 16.8564C119.136 17.0471 118.563 17.3651 118.097 17.7891C117.631 18.1918 117.27 18.6794 117.016 19.2305C116.74 19.8029 116.592 20.4388 116.613 21.096C116.592 21.7319 116.719 22.3679 116.952 22.9402C117.185 23.449 117.525 23.8729 117.949 24.2333C118.436 24.6149 118.987 24.9116 119.56 25.1236C120.28 25.378 121.022 25.59 121.764 25.7596C122.358 25.9079 122.951 26.0775 123.524 26.2683C123.905 26.3955 124.244 26.5651 124.584 26.7983C124.817 26.9467 125.008 27.1586 125.114 27.413C125.22 27.6462 125.262 27.9006 125.262 28.1761C125.283 28.7485 125.008 29.2996 124.52 29.6176C123.926 29.9992 123.227 30.19 122.527 30.1688C121.637 30.19 120.726 29.9992 119.92 29.6388C119.093 29.236 118.33 28.7485 117.652 28.1337L116.02 30.1052C117.758 31.7374 120.068 32.6277 122.464 32.6065C123.227 32.6065 123.99 32.5006 124.711 32.2886C125.347 32.0978 125.94 31.7798 126.449 31.3771C126.937 30.9743 127.318 30.4867 127.573 29.9144C127.848 29.2784 127.975 28.6001 127.975 27.9218C127.975 27.3282 127.869 26.7559 127.657 26.2047C127.445 25.7172 127.127 25.272 126.725 24.9328C126.258 24.5301 125.728 24.2121 125.156 24.0001C124.456 23.7245 123.736 23.4914 122.994 23.3006C122.252 23.131 121.637 22.9402 121.171 22.7918C120.768 22.6646 120.408 22.4739 120.047 22.2407C119.793 22.0923 119.602 21.8591 119.475 21.6047C119.326 21.3716 119.284 21.1172 119.284 20.8416Z" fill="currentColor"/>
<path fill-rule="evenodd" clip-rule="evenodd" d="M32.7103 19.781L25.3121 27.2003C25.2061 27.0095 25.1214 26.8188 25.0366 26.628C24.5278 25.2501 24.5278 23.7238 25.0366 22.3247C25.2909 21.6676 25.6513 21.0741 26.1177 20.5653C26.584 20.0565 27.1352 19.6538 27.7499 19.3782C28.4071 19.0814 29.149 18.933 29.8697 18.933C30.5905 18.933 31.3112 19.0814 31.9896 19.3782C32.2651 19.5054 32.4771 19.6326 32.7103 19.781ZM32.0531 29.5957C31.396 29.8925 30.6541 30.0409 29.9333 30.0409C28.937 30.0621 27.9619 29.7653 27.1352 29.2141L34.5121 21.7948C34.6181 21.9856 34.7029 22.1764 34.7665 22.3671C35.2753 23.745 35.2753 25.2713 34.7665 26.6704C34.5333 27.3275 34.173 27.9211 33.7066 28.4298C33.2402 28.9386 32.6891 29.3201 32.0531 29.5957ZM33.1767 31.9275C34.1306 31.5035 35.0209 30.91 35.7628 30.1681C36.4836 29.4261 37.0559 28.557 37.4587 27.6031C38.2642 25.6105 38.2642 23.3635 37.4587 21.3708C37.2255 20.7985 36.9499 20.2685 36.5896 19.7598L41.4015 14.9266L39.4937 12.9976L34.6605 17.8519C34.2154 17.534 33.7278 17.2796 33.2402 17.0888C32.2015 16.6648 31.078 16.4317 29.9545 16.4529C27.7711 16.4317 25.6513 17.3008 24.125 18.8483C23.4043 19.5902 22.8108 20.4593 22.4292 21.4132C21.3693 23.9994 21.6873 26.9671 23.3195 29.2565L18.4863 34.0685L20.3942 35.9976L25.2273 31.1432C25.6725 31.44 26.1389 31.6943 26.6264 31.9063C27.6651 32.3303 28.7886 32.5635 29.9121 32.5423C31.0144 32.5847 32.1379 32.3515 33.1767 31.9275Z" fill="currentColor"/>
</g>
</svg>
