<?xml version="1.0" encoding="UTF-8"?><svg xmlns="http://www.w3.org/2000/svg" viewBox="0 0 80 80"><defs><style>.d{fill:#e53935;}</style></defs><g id="a"/><g id="b"><g id="c"><path class="d" d="M40,0c22.09,0,40,17.91,40,40s-17.91,40-40,40S0,62.09,0,40,17.91,0,40,0Zm0,3.73C19.97,3.73,3.73,19.97,3.73,40s16.24,36.27,36.27,36.27,36.27-16.24,36.27-36.27S60.03,3.73,40,3.73Z"/><path class="d" d="M63.53,25.29v-3.39h-10.74c-.58-2.19-1.15-4.12-1.78-5.9l-3.62,.63c.69,1.73,1.3,3.49,1.83,5.27h-11.37v3.39h25.68Zm-27.51,25.2V28.83h-5.29c1.1-1.62,2.2-3.6,3.3-6v-2.5h-8.65c.47-1.05,.91-2.11,1.31-3.18l-3.35-1.04c-1.57,5.11-4.04,9.24-7.34,12.42l.79,3.7c.68-.63,1.36-1.25,1.99-1.93v20.19h17.24Zm-8.91-21.65h-7.02c1.42-1.74,2.7-3.59,3.83-5.53h6.6c-1.15,2.09-2.25,3.97-3.41,5.53Zm21.59,35.17c2.62,0,3.98-1.46,3.98-4.33v-14.87h8.33v-14.82h-20.39v14.82h8.39v13.98c0,1.3-.52,1.98-1.57,1.98-1.21,0-2.46-.1-3.72-.26l.73,3.49h4.24Zm-22.8-25.88h-3.88v-6.21h3.88v6.21Zm6.86,0h-3.83v-6.21h3.83v6.21Zm24.68,3.39h-13.26v-8.19h13.26v8.19Zm-24.68,5.84h-3.83v-6.21h3.83v6.21h0Zm-6.87,0h-3.88v-6.21h3.88v6.21Zm35.32,14.24l2.78-1.93c-1.42-3.34-3.41-7.2-6.03-11.63l-2.78,1.67c2.52,4.33,4.56,8.29,6.03,11.9h0Zm-21.96,.89c2.31-3.6,4.3-7.88,5.97-12.78l-3.04-1.46c-1.62,4.69-3.56,8.76-5.76,12.21l2.83,2.03h0Zm-4.35-3.55l2.57-.63c-.73-2.5-1.47-4.7-2.3-6.57l-2.46,.73c.85,2.11,1.59,4.27,2.2,6.47Zm-5.55,3.03l2.73-.31c-.32-3.97-.89-7.1-1.73-9.39l-2.62,.31c.84,2.19,1.36,5.32,1.62,9.39Zm-10.01,1.41c1.1-3.08,1.78-6.57,2.1-10.54l-2.83-.36c-.26,3.76-.99,7.1-2.15,10.02l2.88,.89Zm4.4-.63l2.73-.31c-.11-4.12-.37-7.41-.73-9.81l-2.52,.31c.26,2.3,.42,5.58,.52,9.81h0Z"/></g></g></svg>