<svg width="260" height="72" viewBox="0 0 260 72" fill="none" xmlns="http://www.w3.org/2000/svg">
<g clip-path="url(#clip0_2282_8067)">
<path d="M84.9396 27.936C86.6463 27.424 88.5876 26.9547 90.7636 26.528C92.9823 26.0587 95.393 25.824 97.9956 25.824C101.921 25.824 104.801 26.784 106.636 28.704C108.47 30.624 109.388 33.2053 109.388 36.448C109.388 37.344 109.302 38.304 109.132 39.328C109.004 40.3093 108.833 41.3333 108.62 42.4L104.396 60H96.6516L100.62 43.232C100.833 42.2933 101.046 41.3333 101.26 40.352C101.473 39.3707 101.601 38.432 101.644 37.536C101.686 36.0427 101.324 34.8053 100.556 33.824C99.8303 32.8427 98.3796 32.352 96.2036 32.352C94.369 32.352 92.7903 32.544 91.4676 32.928L85.0036 60H77.2596L84.9396 27.936ZM125.162 60.896C121.194 60.896 118.165 59.7227 116.074 57.376C113.983 55.0293 112.938 51.936 112.938 48.096C112.938 45.6213 113.322 43.0613 114.09 40.416C114.858 37.7707 116.031 35.36 117.61 33.184C119.189 31.008 121.173 29.216 123.562 27.808C125.951 26.4 128.767 25.696 132.01 25.696C135.978 25.696 139.007 26.8693 141.098 29.216C143.189 31.52 144.234 34.592 144.234 38.432C144.234 40.9493 143.85 43.5307 143.082 46.176C142.357 48.8213 141.205 51.232 139.626 53.408C138.09 55.584 136.106 57.376 133.674 58.784C131.285 60.192 128.447 60.896 125.162 60.896ZM131.05 32.224C129.386 32.224 127.893 32.7147 126.57 33.696C125.29 34.6347 124.202 35.8507 123.306 37.344C122.453 38.8373 121.791 40.48 121.322 42.272C120.853 44.0213 120.618 45.728 120.618 47.392C120.618 49.5253 121.023 51.2107 121.834 52.448C122.645 53.6853 124.074 54.304 126.122 54.304C127.786 54.304 129.258 53.8347 130.538 52.896C131.861 51.9147 132.949 50.6987 133.802 49.248C134.698 47.7547 135.381 46.112 135.85 44.32C136.319 42.528 136.554 40.8213 136.554 39.2C136.554 37.0667 136.149 35.3813 135.338 34.144C134.527 32.864 133.098 32.224 131.05 32.224ZM153.225 27.936C154.931 27.424 156.851 26.9547 158.985 26.528C161.118 26.0587 163.465 25.824 166.025 25.824C167.945 25.824 169.545 26.1013 170.825 26.656C172.147 27.2107 173.257 28 174.153 29.024C175.39 28.2987 176.883 27.5947 178.633 26.912C180.425 26.1867 182.451 25.824 184.713 25.824C186.675 25.824 188.339 26.1013 189.705 26.656C191.07 27.2107 192.179 27.9787 193.033 28.96C193.886 29.9413 194.505 31.1147 194.889 32.48C195.273 33.8027 195.465 35.2533 195.465 36.832C195.465 38.5813 195.23 40.4373 194.761 42.4L190.537 60H182.793L186.761 43.232C186.974 42.4213 187.166 41.5467 187.337 40.608C187.55 39.6267 187.657 38.6453 187.657 37.664C187.657 36.9813 187.571 36.32 187.401 35.68C187.273 34.9973 187.017 34.4213 186.633 33.952C186.249 33.4827 185.715 33.0987 185.033 32.8C184.393 32.5013 183.561 32.352 182.537 32.352C181.427 32.352 180.339 32.5653 179.273 32.992C178.206 33.4187 177.31 33.8667 176.585 34.336C176.755 35.1467 176.841 36.0213 176.841 36.96C176.841 37.8133 176.777 38.7093 176.649 39.648C176.521 40.5867 176.35 41.504 176.137 42.4L171.913 60H164.169L168.137 43.232C168.35 42.464 168.542 41.5893 168.713 40.608C168.926 39.584 169.033 38.5813 169.033 37.6C169.033 36.192 168.691 34.976 168.009 33.952C167.369 32.8853 166.131 32.352 164.297 32.352C163.443 32.352 162.633 32.416 161.865 32.544C161.097 32.6293 160.393 32.7573 159.753 32.928L153.289 60H145.545L153.225 27.936ZM205.18 60H197.5L205.5 26.528H213.244L205.18 60ZM210.94 21.472C209.788 21.472 208.785 21.1307 207.932 20.448C207.078 19.7653 206.652 18.7413 206.652 17.376C206.652 15.7973 207.185 14.496 208.252 13.472C209.361 12.448 210.62 11.936 212.028 11.936C213.18 11.936 214.182 12.2987 215.036 13.024C215.932 13.7067 216.38 14.7307 216.38 16.096C216.38 17.6747 215.825 18.976 214.716 20C213.606 20.9813 212.348 21.472 210.94 21.472ZM214.491 47.328C214.491 44.4267 214.939 41.6747 215.835 39.072C216.773 36.4267 218.096 34.1227 219.803 32.16C221.509 30.1547 223.6 28.576 226.075 27.424C228.549 26.272 231.365 25.696 234.523 25.696C236.187 25.696 237.701 25.8453 239.067 26.144C240.475 26.4 241.797 26.8053 243.035 27.36L240.283 33.568C239.515 33.2267 238.661 32.928 237.723 32.672C236.784 32.416 235.632 32.288 234.267 32.288C232.432 32.288 230.768 32.672 229.275 33.44C227.824 34.1653 226.587 35.168 225.563 36.448C224.539 37.728 223.749 39.2427 223.195 40.992C222.64 42.7413 222.363 44.5973 222.363 46.56C222.363 47.6693 222.469 48.6933 222.683 49.632C222.939 50.528 223.323 51.3387 223.835 52.064C224.389 52.7467 225.136 53.28 226.075 53.664C227.013 54.048 228.187 54.24 229.595 54.24C231.045 54.24 232.432 54.048 233.755 53.664C235.12 53.28 236.165 52.896 236.891 52.512L237.531 58.848C236.549 59.3173 235.248 59.7653 233.627 60.192C232.005 60.6613 230.171 60.896 228.123 60.896C225.776 60.896 223.749 60.5547 222.043 59.872C220.336 59.1467 218.907 58.1867 217.755 56.992C216.645 55.7547 215.813 54.3253 215.259 52.704C214.747 51.04 214.491 49.248 214.491 47.328Z" fill="white"/>
<g clip-path="url(#clip1_2282_8067)">
<path d="M61.065 23.0216C56.4911 24.8244 56.7467 24.7 52.1566 26.7817C26.0059 38.596 9.75654 53.8281 14.3262 64.0896C15.2544 66.0247 16.7995 67.5908 18.7148 68.5378C24.9398 71.6886 32.0094 72.7268 38.8683 71.4976C45.7272 70.2683 52.0075 66.8375 56.7715 61.7173C61.5356 56.5971 64.5278 50.0622 65.3016 43.0881C66.0754 36.114 64.5893 29.0749 61.065 23.0216Z" fill="url(#paint0_linear_2282_8067)"/>
<path d="M58.9355 19.5806C54.1847 12.9324 47.0739 8.31843 39.0347 6.66781C30.9956 5.01719 22.6252 6.45249 15.609 10.6847C8.59277 14.9169 3.45183 21.6317 1.2213 29.4771C-1.00924 37.3225 -0.163694 45.7157 3.58766 52.9668C9.71597 44.0821 23.3075 33.9211 40.5782 26.225C46.5231 23.5617 52.6591 21.3408 58.9355 19.5806V19.5806Z" fill="url(#paint1_linear_2282_8067)"/>
</g>
</g>
<defs>
<linearGradient id="paint0_linear_2282_8067" x1="23.5346" y1="58.4689" x2="106.176" y2="39.172" gradientUnits="userSpaceOnUse">
<stop stop-color="#2810B3"/>
<stop offset="1" stop-color="#8A76FF"/>
</linearGradient>
<linearGradient id="paint1_linear_2282_8067" x1="44.09" y1="13.1636" x2="-25.5467" y2="57.6304" gradientUnits="userSpaceOnUse">
<stop stop-color="#6000FF"/>
<stop offset="1" stop-color="#7472C9"/>
</linearGradient>
<clipPath id="clip0_2282_8067">
<rect width="260" height="72" fill="white"/>
</clipPath>
<clipPath id="clip1_2282_8067">
<rect width="88.2353" height="72" fill="white"/>
</clipPath>
</defs>
</svg>
