<svg width="66" height="66" viewBox="0 0 66 66" fill="none" xmlns="http://www.w3.org/2000/svg">
<path d="M61.065 17.0216C56.4911 18.8244 56.7467 18.7 52.1566 20.7817C26.0059 32.5959 9.75654 47.8281 14.3262 58.0895C15.2544 60.0247 16.7995 61.5908 18.7148 62.5378C24.9398 65.6886 32.0094 66.7268 38.8683 65.4976C45.7272 64.2683 52.0075 60.8375 56.7715 55.7173C61.5356 50.5971 64.5278 44.0621 65.3016 37.0881C66.0754 30.114 64.5893 23.0749 61.065 17.0216Z" fill="url(#paint0_linear_3141_8529)"/>
<path d="M58.9355 13.5806C54.1847 6.93237 47.0739 2.31843 39.0347 0.667806C30.9956 -0.982813 22.6252 0.452487 15.609 4.68471C8.59277 8.91693 3.45183 15.6317 1.2213 23.4771C-1.00924 31.3225 -0.163694 39.7157 3.58766 46.9668C9.71597 38.0821 23.3075 27.9211 40.5782 20.225C46.5231 17.5617 52.6591 15.3408 58.9355 13.5806V13.5806Z" fill="url(#paint1_linear_3141_8529)"/>
<defs>
<linearGradient id="paint0_linear_3141_8529" x1="23.5346" y1="52.4689" x2="106.176" y2="33.172" gradientUnits="userSpaceOnUse">
<stop stop-color="#2810B3"/>
<stop offset="1" stop-color="#8A76FF"/>
</linearGradient>
<linearGradient id="paint1_linear_3141_8529" x1="44.09" y1="7.16358" x2="-25.5467" y2="51.6304" gradientUnits="userSpaceOnUse">
<stop stop-color="#6000FF"/>
<stop offset="1" stop-color="#7472C9"/>
</linearGradient>
</defs>
</svg>
