<svg width="48" height="48" viewBox="0 0 48 48" fill="none" xmlns="http://www.w3.org/2000/svg">
<path d="M20.0242 32.7978C19.307 32.7978 19.4357 32.5236 19.1783 31.8472L17.082 24.9741L30.1009 16.8945L31.6271 17.2967L30.3583 20.7332L20.0242 32.7978Z" fill="white"/>
<path d="M20.0242 32.7978C19.307 32.7978 19.4357 32.5236 19.1783 31.8472L17.082 24.9741L30.1009 16.8945L31.6271 17.2967L30.3583 20.7332L20.0242 32.7978Z" fill="black" fill-opacity="0.16"/>
<path d="M20.0234 32.7976C20.5751 32.7976 20.8141 32.5417 21.1268 32.2492C21.6049 31.7923 27.7467 25.8515 27.7467 25.8515L23.977 24.9375L20.4832 27.131L20.0234 32.6148V32.7976Z" fill="white"/>
<path d="M20.0234 32.7976C20.5751 32.7976 20.8141 32.5417 21.1268 32.2492C21.6049 31.7923 27.7467 25.8515 27.7467 25.8515L23.977 24.9375L20.4832 27.131L20.0234 32.6148V32.7976Z" fill="black" fill-opacity="0.24"/>
<path d="M20.3916 27.2039L29.2915 33.7297C30.3029 34.2781 31.0384 34.0039 31.2958 32.7975L34.9183 15.8339C35.2861 14.3532 34.3483 13.6952 33.3737 14.1339L12.1168 22.2866C10.6642 22.8716 10.6825 23.6759 11.8594 24.0232L17.3207 25.7232L29.9535 17.8081C30.5419 17.4425 31.0936 17.6436 30.6522 18.0458L20.3916 27.2039Z" fill="white"/>
</svg>
